<?xml version="1.0" encoding="iso-8859-1"?>
<!-- Generator: Adobe Illustrator 19.0.0, SVG Export Plug-In . SVG Version: 6.00 Build 0)  -->
<svg version="1.1" id="Capa_1" xmlns="http://www.w3.org/2000/svg" xmlns:xlink="http://www.w3.org/1999/xlink" x="0px" y="0px"
	 viewBox="0 0 512 512" style="enable-background:new 0 0 512 512;" xml:space="preserve">
<ellipse transform="matrix(0.7071 -0.7071 0.7071 0.7071 -205.1647 242.1999)" style="fill:#806C6C;" cx="189.779" cy="368.756" rx="36.018" ry="40.49"/>
<path style="fill:#5CB38E;" d="M312.539,405.85c62.581,0,134.599,0,187.321-33.661c9.022-5.76,3.804-19.671-6.806-18.255
	c-41.751,5.574-76.822-5.054-96.82-22.27L312.539,405.85z"/>
<path style="opacity:0.1;enable-background:new    ;" d="M419.84,345.868c-0.698,19.985-3.765,39.934-16.084,56.522
	c-30.507,3.462-61.898,3.462-91.216,3.462l83.695-74.185C402.644,337.183,410.609,342.02,419.84,345.868z"/>
<g>
	<path style="fill:#498A68;" d="M340.556,466.894c-10.677,0.001-19.715-8.227-20.548-19.048c-0.254-3.302-1.58-56.086,3.983-69.742
		c4.3-10.553,16.337-15.619,26.891-11.323c10.12,4.123,15.197,15.367,11.803,25.589c-1.48,7.617-2.329,42.001-1.535,52.309
		c0.874,11.362-7.627,21.28-18.987,22.154C341.622,466.874,341.087,466.894,340.556,466.894z M362.213,393.648
		c-0.003,0.007-0.006,0.015-0.009,0.023C362.207,393.663,362.21,393.655,362.213,393.648z"/>
	<path style="fill:#498A68;" d="M265.733,466.894c-10.677,0.001-19.715-8.227-20.548-19.048c-0.254-3.303-1.58-56.089,3.985-69.744
		c4.302-10.552,16.342-15.616,26.892-11.32c10.121,4.125,15.196,15.368,11.801,25.59c-1.48,7.619-2.33,41.999-1.536,52.307
		c0.875,11.362-7.627,21.28-18.987,22.154C266.8,466.874,266.264,466.894,265.733,466.894z M287.389,393.651
		c-0.002,0.007-0.006,0.015-0.008,0.022C287.384,393.666,287.387,393.658,287.389,393.651z"/>
</g>
<path style="opacity:0.1;enable-background:new    ;" d="M276.061,366.782c-10.55-4.297-22.59,0.769-26.892,11.32
	c-3.532,8.667-4.288,33.089-4.304,50.625c11.6,3.898,25.247,6.333,41.174,7.379c-0.146-14.314,0.635-37.624,1.821-43.732
	C291.258,382.15,286.182,370.907,276.061,366.782z"/>
<path style="opacity:0.1;enable-background:new    ;" d="M350.881,366.781c-10.554-4.297-22.591,0.771-26.891,11.323
	c-4.083,10.023-4.455,41.119-4.264,58.265c15.775-0.752,29.42-2.782,41.124-6.167c0.073-14.115,0.798-32.508,1.832-37.832
	C366.078,382.148,361.001,370.904,350.881,366.781z"/>
<path style="fill:#5CB38E;" d="M211.017,333.059c0,48.165,6.543,83.016,94.192,83.016s94.192-34.852,94.192-83.016
	s-42.171-87.21-94.192-87.21S211.017,284.894,211.017,333.059z"/>
<path style="fill:#9BDFC1;" d="M211.017,333.059c0-0.384,0.01-0.765,0.016-1.148c19.619-5.035,58.534-6.499,85.614,22.28
	c19.733,20.971,22.589,43.602,20.472,61.652c-3.794,0.154-7.76,0.233-11.909,0.233C217.558,416.075,211.017,381.223,211.017,333.059
	z"/>
<path style="opacity:0.05;enable-background:new    ;" d="M323.09,247.426c43.468,7.736,76.311,43.13,76.311,85.634
	c0,44.598-5.62,77.777-76.036,82.447C362.463,375.823,354.901,293.887,323.09,247.426z"/>
<path style="fill:#5CB38E;" d="M218.749,120.251L218.749,120.251c16.084-24.324,43.3-38.954,72.46-38.954h35.846
	c50.962,0,92.275,41.312,92.275,92.275v42.424c0,45.738-37.078,82.816-82.816,82.816H146.497c-34.264,0-62.04-27.776-62.04-62.04
	v-28.874c0-34.264,27.776-62.04,62.04-62.04h24.616C190.284,145.86,208.176,136.241,218.749,120.251z"/>
<g style="opacity:0.1;">
	<circle cx="369.206" cy="236.16" r="6.351"/>
	<circle cx="324.057" cy="245.85" r="6.351"/>
	<circle cx="349.896" cy="267.509" r="6.351"/>
</g>
<g>
	<ellipse style="fill:#FFA8CB;" cx="359.546" cy="149.314" rx="16.009" ry="8.212"/>
	<ellipse style="fill:#FFA8CB;" cx="252.09" cy="149.314" rx="16.009" ry="8.212"/>
</g>
<path style="opacity:0.05;enable-background:new    ;" d="M347.555,83.585c41.095,9.323,71.775,46.07,71.775,89.985v42.424
	c0,45.738-37.078,82.816-82.816,82.816h-50.253C359.448,256.229,371.852,139.177,347.555,83.585z"/>
<path style="fill:#FAE17C;" d="M159.161,350.81c2.034-15.063-8.904-28.84-23.966-30.878c-25.708-3.477-44.559,2.367-62.677,18.988
	c-2.887,2.648-2.018,7.336,1.573,8.9c14.724,6.413,26.459,22.57,54.107,26.456C143.231,376.389,157.127,365.873,159.161,350.81z"/>
<path style="fill:#80B0E3;" d="M292.35,386.751l-40.188,1.885c-33.205,1.557-66.347-4.171-97.103-16.781l0,0
	c-2.272-0.932-3.623-3.286-3.282-5.718l4.469-31.794c0.342-2.432,2.29-4.322,4.731-4.592l0,0
	c33.041-3.645,66.478-0.016,97.967,10.634l38.113,12.889c7.834,2.65,12.674,10.499,11.523,18.688l0,0
	C307.427,380.152,300.61,386.363,292.35,386.751z"/>
<path style="fill:#495059;" d="M202.927,329.015c-13.936-1.041-27.98-0.806-41.951,0.736l0,0c-2.441,0.269-4.389,2.16-4.731,4.592
	l-4.469,31.794c-0.342,2.432,1.009,4.786,3.282,5.718l0,0c13.006,5.333,26.44,9.43,40.123,12.271L202.927,329.015z"/>
<path style="fill:#498A68;" d="M298.88,374.497c-5.408,0-10.502-3.295-12.538-8.651c-2.63-6.923,0.848-14.668,7.772-17.299
	c9.728-3.696,14.591-7.03,20.166-11.887c5.584-4.866,14.054-4.283,18.92,1.302c4.865,5.584,4.283,14.054-1.302,18.92
	c-7.328,6.385-14.937,11.675-28.258,16.736C302.074,374.214,300.464,374.497,298.88,374.497z"/>
<path style="fill:#DEE2E5;" d="M161.107,395.245H13.637c-3.39,0-6.138-2.748-6.138-6.138V218.832c0-3.39,2.748-6.138,6.138-6.138
	h147.469c3.39,0,6.138,2.748,6.138,6.138v170.276C167.244,392.497,164.497,395.245,161.107,395.245z"/>
<path style="opacity:0.05;enable-background:new    ;" d="M56.144,212.693H13.637c-3.39,0-6.138,2.748-6.138,6.138v170.276
	c0,3.39,2.748,6.138,6.138,6.138h99.455C51.552,351.382,49.014,256.966,56.144,212.693z"/>
<path style="fill:#495059;" d="M386.639,106.222L260.648,95.2c-7.863-0.688-15.052-4.717-19.742-11.065l0,0
	c-6.465-8.748-4.271-21.128,4.806-27.123l14.345-9.475c14.444-9.54,31.693-13.911,48.937-12.403l40.464,3.54
	c17.244,1.509,33.472,8.809,46.04,20.712l12.483,11.822c7.898,7.48,7.908,20.052,0.023,27.545l0,0
	C402.281,104.191,394.502,106.91,386.639,106.222z"/>
<path d="M272.398,117.557c-4.143,0-7.5,3.357-7.5,7.5v7.977c0,4.143,3.357,7.5,7.5,7.5s7.5-3.357,7.5-7.5v-7.977
	C279.898,120.914,276.541,117.557,272.398,117.557z M138.541,171.915c-3.507,0-6.351,2.843-6.351,6.351
	c0,3.507,2.843,6.351,6.351,6.351c3.507,0,6.351-2.844,6.351-6.351C144.89,174.758,142.047,171.915,138.541,171.915z
	 M510.889,357.868c-2.895-7.916-10.453-12.489-18.827-11.366c-32.803,4.377-64.313-1.647-85.215-16.135
	c-0.47-15.685-5.038-30.841-13.353-44.347c5.728-4.656,10.907-9.999,15.343-15.921c11.772-15.712,17.992-34.421,17.992-54.103
	v-42.425c0-23.073-8.121-45.492-22.607-63.219c3.251-1.564,6.278-3.626,8.946-6.162c5.32-5.055,8.247-11.881,8.241-19.219
	c-0.006-7.34-2.943-14.16-8.273-19.208l-12.482-11.821c-13.74-13.013-31.69-21.089-50.544-22.738l-40.465-3.54
	c-18.853-1.652-37.932,3.186-53.723,13.615l-14.346,9.475c-6.124,4.045-10.202,10.252-11.482,17.479
	c-1.28,7.227,0.417,14.456,4.778,20.358c0.628,0.85,1.299,1.659,1.995,2.442c-9.585,6.761-17.899,15.287-24.374,25.08
	c-9.212,13.93-24.681,22.246-41.38,22.246h-24.616c-37.437,0-68.041,29.741-69.469,66.833H13.637C6.118,205.193,0,211.311,0,218.832
	v170.275c0,7.52,6.118,13.638,13.637,13.638h35.677l-21.469,72.268c-1.18,3.971,1.083,8.146,5.054,9.325
	c0.713,0.212,1.432,0.313,2.139,0.313c3.233,0,6.219-2.108,7.187-5.366l12.428-41.833h65.443l12.428,41.833
	c1.179,3.971,5.353,6.236,9.325,5.054c3.971-1.18,6.233-5.354,5.054-9.325l-14.038-47.257c-0.005-0.018-0.01-0.036-0.016-0.055
	l-7.414-24.956h35.676c0.457,0,0.908-0.024,1.353-0.069c9.382,7.861,20.766,11.858,31.802,11.858
	c10.929,0,21.511-3.912,29.441-11.842c0.154-0.154,0.294-0.32,0.445-0.476c3.875,3.537,8.354,6.625,13.491,9.262
	c-0.248,7.596-0.288,14.887-0.271,20.045c0.014,4.134,3.369,7.475,7.499,7.475h0.026c4.142-0.014,7.488-3.383,7.475-7.525
	c-0.013-3.79,0.006-8.761,0.119-14.136c7.681,2.294,16.374,3.941,26.143,4.964c-0.169,8.814-0.158,18.072,0.219,22.953
	c0.555,7.221-4.866,13.546-12.093,14.102c-0.344,0.027-0.686,0.039-1.024,0.039h-0.003c-3.508,0-6.81-1.379-9.297-3.883
	c-2.918-2.94-7.667-2.954-10.607-0.036c-2.939,2.919-2.955,7.668-0.036,10.607c5.325,5.36,12.405,8.313,19.938,8.313h0.005
	c0.734,0,1.471-0.028,2.181-0.084c15.465-1.189,27.08-14.74,25.89-30.209c-0.291-3.78-0.355-11.76-0.193-20.75
	c3.737,0.146,7.596,0.224,11.599,0.224c2.387,0,4.717-0.03,7.007-0.08c-0.12,12.725,0.188,23.282,0.315,24.927
	c1.121,14.565,13.431,25.974,28.025,25.973c0.735,0,1.472-0.028,2.182-0.084c7.492-0.576,14.31-4.036,19.2-9.741
	c4.891-5.706,7.266-12.974,6.688-20.467c-0.408-5.309-0.365-18.335,0.067-30.626c0.775-0.341,1.537-0.692,2.285-1.051
	c40.383-1.851,91.573-7.517,132.918-33.914C510.947,374.011,513.757,365.714,510.889,357.868z M244.865,70.85
	c0.555-3.134,2.323-5.825,4.979-7.58l14.345-9.474c12.98-8.571,28.659-12.539,44.15-11.189l40.465,3.54
	c15.493,1.355,30.245,7.992,41.536,18.685l12.482,11.821c2.311,2.188,3.585,5.147,3.587,8.33c0.003,3.183-1.267,6.143-3.573,8.334
	c-3.501,3.327-8.07,5.25-12.835,5.48c-0.034,0.001-0.069,0.003-0.103,0.005c-0.865,0.037-1.736,0.026-2.608-0.051L261.301,87.729
	c-5.718-0.5-10.953-3.435-14.364-8.051C245.046,77.118,244.309,73.982,244.865,70.85z M59.107,422.452l5.854-19.706h44.823
	l5.854,19.706H59.107z M69.416,387.746l17.956-60.443l17.955,60.443H69.416z M159.745,387.746h-38.769l-26.414-88.915
	c-0.945-3.182-3.87-5.364-7.189-5.364s-6.244,2.182-7.189,5.364L53.77,387.746h-38.77V220.193h144.745V387.746z M174.213,392.837
	c0.338-1.187,0.531-2.435,0.531-3.729v-2.396c11.749,3.483,23.684,6.024,35.749,7.627
	C200.521,401.865,185.733,401.17,174.213,392.837z M194.366,336.035l-5.477,38.974c-4.745-1.17-9.463-2.494-14.145-3.984v-34.852
	C181.307,335.835,187.851,335.791,194.366,336.035z M174.744,321.16V306.31h32.914c-1.574,4.987-2.708,10.085-3.379,15.27
	C194.491,320.822,184.639,320.682,174.744,321.16z M222.637,380.576c-0.07-0.008-0.139-0.011-0.21-0.017
	c-6.311-0.546-12.59-1.364-18.827-2.455l5.76-40.988c0.176,0.019,0.351,0.038,0.527,0.058c0.247,0.04,0.498,0.067,0.753,0.083
	c15.538,1.75,30.879,5.155,45.899,10.234l22.349,7.559c-1.295,4.271-1.262,8.979,0.442,13.464c1.8,4.734,5.256,8.544,9.542,10.895
	l-37.064,1.738C242.033,381.603,232.298,381.402,222.637,380.576z M350.549,454.808c-2.283,2.663-5.466,4.278-8.97,4.548
	c-7.218,0.588-13.545-4.946-14.094-12.081c-0.082-1.124-0.403-11.686-0.262-24.533c9.785-0.796,18.532-2.168,26.311-4.141
	c-0.264,10.343-0.283,21.205,0.137,26.653C353.939,448.752,352.831,452.145,350.549,454.808z M379.472,387.757
	c-1.868,2.186-5.361,6.27-13.081,10.245c-0.459,0.175-0.896,0.393-1.306,0.65c-10.652,5.146-28.695,9.924-59.877,9.924
	c-6.643,0-12.846-0.203-18.633-0.609c-0.014-0.001-0.028-0.003-0.042-0.003h-0.002c-19.789-1.392-34.654-5.19-45.191-11.576
	c0.011,0,0.022,0,0.033,0c3.705,0,7.421-0.087,11.14-0.261l40.188-1.885c10.501-0.493,19.377-7.567,22.418-17.348
	c9.22-4.358,15.558-9,21.707-14.358c3.123-2.721,3.449-7.458,0.728-10.581c-2.721-3.124-7.459-3.45-10.581-0.727
	c-6.914,6.023-13.674,10.698-25.995,15.38c-0.681,0.259-1.387,0.39-2.099,0.39c-2.439,0-4.66-1.534-5.527-3.814
	c-1.157-3.048,0.38-6.469,3.426-7.626c10.725-4.075,16.345-7.942,22.43-13.243c3.122-2.721,3.448-7.459,0.727-10.582
	c-2.723-3.122-7.458-3.447-10.582-0.727c-5.031,4.385-9.182,7.217-17.902,10.531c-0.838,0.319-1.632,0.701-2.404,1.112
	l-27.702-9.369c-13.827-4.677-27.909-8.025-42.161-10.061c0.772-5.784,2.235-11.438,4.357-16.909h102.311c4.143,0,7.5-3.357,7.5-7.5
	s-3.357-7.5-7.5-7.5H174.744v-36.788c0.83-0.725,1.624-1.496,2.354-2.333c2.722-3.123,2.395-7.86-0.727-10.582
	c-0.504-0.439-1.054-0.791-1.627-1.072v-21.705c0-7.521-6.118-13.638-13.637-13.638H92.027c1.415-28.821,25.304-51.834,54.47-51.834
	h24.616c21.749,0,41.895-10.831,53.892-28.973c6.451-9.756,15.074-18.018,25.076-24.085c3.143,1.254,6.477,2.069,9.915,2.369
	l125.989,11.023c0.372,0.033,0.744,0.052,1.115,0.073c15.957,15.99,24.731,37.106,24.731,59.804v42.425
	c0,25.174-12.233,47.864-31.947,61.658c-0.336,0.174-0.667,0.367-0.982,0.597c-0.207,0.151-0.404,0.311-0.591,0.479
	c-5.912,3.917-12.457,7.054-19.522,9.238c-3.957,1.223-6.174,5.423-4.95,9.38c0.995,3.22,3.96,5.287,7.163,5.287
	c0.733,0,1.479-0.108,2.217-0.337c6.22-1.922,12.213-4.556,17.872-7.785c7.086,11.758,10.812,24.951,10.812,38.548
	C391.902,357.849,389.823,375.647,379.472,387.757z M495.824,365.87c-31.418,20.059-69.747,27.254-103.75,30.172
	c10.676-13.431,13.721-30.62,14.541-48.223c23.437,12.835,55.025,17.88,87.433,13.55c1.691-0.224,2.434,0.771,2.754,1.649
	C497.24,364.217,496.911,365.176,495.824,365.87z M339.245,117.557c-4.143,0-7.5,3.357-7.5,7.5v7.977c0,4.143,3.357,7.5,7.5,7.5
	c4.143,0,7.5-3.357,7.5-7.5v-7.977C346.744,120.914,343.387,117.557,339.245,117.557z M179.011,171.915
	c-3.507,0-6.351,2.843-6.351,6.351c0,3.507,2.843,6.351,6.351,6.351c3.507,0,6.351-2.844,6.351-6.351
	C185.362,174.758,182.519,171.915,179.011,171.915z"/>
<g>
</g>
<g>
</g>
<g>
</g>
<g>
</g>
<g>
</g>
<g>
</g>
<g>
</g>
<g>
</g>
<g>
</g>
<g>
</g>
<g>
</g>
<g>
</g>
<g>
</g>
<g>
</g>
<g>
</g>
</svg>
