<?xml version="1.0" encoding="iso-8859-1"?>
<!-- Generator: Adobe Illustrator 19.0.0, SVG Export Plug-In . SVG Version: 6.00 Build 0)  -->
<svg version="1.1" id="Capa_1" xmlns="http://www.w3.org/2000/svg" xmlns:xlink="http://www.w3.org/1999/xlink" x="0px" y="0px"
	 viewBox="0 0 512 512" style="enable-background:new 0 0 512 512;" xml:space="preserve">
<path style="fill:#498A68;" d="M183.621,416.011c-6.526,0-12.283-4.719-13.38-11.368c-1.222-7.399,3.786-14.387,11.185-15.608
	c8.121-1.341,17.353-8.92,20.386-11.411c0.441-0.362,0.809-0.662,1.094-0.89c5.871-4.664,14.413-3.688,19.078,2.184
	c4.665,5.871,3.687,14.412-2.184,19.078c-0.198,0.157-0.451,0.366-0.757,0.617c-7.68,6.306-19.477,14.951-33.194,17.215
	C185.101,415.951,184.356,416.011,183.621,416.011z"/>
<path style="fill:#A3E3FF;" d="M204.797,63.755c0,31.069-25.186,81.596-56.255,81.596S92.288,94.823,92.288,63.755
	S117.474,7.5,148.542,7.5S204.797,32.686,204.797,63.755z"/>
<path style="opacity:0.1;enable-background:new    ;" d="M143.012,7.774c-28.472,2.779-50.724,26.779-50.724,55.981
	c0,31.069,25.186,81.596,56.255,81.596c11.549,0,22.284-6.985,31.216-17.355C124.619,134.123,123.084,37.461,143.012,7.774z"/>
<path style="fill:#5CB38E;" d="M301.604,444.542c60.565,0,130.265,0,181.29-32.577c8.731-5.574,3.681-19.038-6.587-17.667
	c-40.408,5.394-74.349-4.891-93.703-21.553L301.604,444.542z"/>
<path style="opacity:0.1;enable-background:new    ;" d="M405.451,386.49c-0.675,19.342-3.644,38.649-15.567,54.702
	c-29.525,3.35-59.905,3.35-88.28,3.35l81-71.797C388.808,378.085,396.517,382.766,405.451,386.49z"/>
<g>
	<path style="fill:#498A68;" d="M328.754,504.5c-7.813,0-15.305-4.402-18.881-11.928c-11.562-24.327-8.474-57.947-3.811-73.425
		c3.328-11.047,14.981-17.304,26.027-13.976c11.046,3.328,17.304,14.981,13.976,26.027c-3.022,10.031-3.923,31.94,1.542,43.44
		c4.953,10.42,0.52,22.882-9.9,27.834C334.812,503.848,331.759,504.5,328.754,504.5z"/>
	<path style="fill:#498A68;" d="M253.493,504.5c-9.026,0-17.351-5.896-20.03-14.994c-8.61-29.24,6.317-67.263,9.612-73.538
		c5.365-10.213,17.993-14.145,28.207-8.781c10.196,5.355,14.132,17.948,8.809,28.152c-3.073,6.24-10.074,30.405-6.551,42.365
		c3.259,11.067-3.071,22.681-14.138,25.939C257.434,504.224,255.447,504.5,253.493,504.5z"/>
</g>
<path style="opacity:0.1;enable-background:new    ;" d="M346.065,431.199c3.328-11.047-2.929-22.699-13.976-26.027
	c-11.047-3.328-22.7,2.929-26.027,13.976c-3.62,12.018-6.287,34.974-1.887,56.025c15.957-0.501,29.773-2.277,41.642-5.405
	C342.408,457.735,343.429,439.948,346.065,431.199z"/>
<path style="opacity:0.1;enable-background:new    ;" d="M271.283,407.187c-10.214-5.364-22.843-1.433-28.207,8.781
	c-2.444,4.653-11.274,26.762-12.17,49.801c11.61,4.574,25.51,7.461,41.98,8.756c-1.738-12.631,4.386-33.458,7.207-39.186
	C285.415,425.135,281.479,412.542,271.283,407.187z"/>
<path style="fill:#5CB38E;" d="M203.35,374.094c0,46.614,6.332,80.343,91.16,80.343s91.16-33.729,91.16-80.343
	s-40.814-84.402-91.16-84.402S203.35,327.48,203.35,374.094z"/>
<path style="fill:#9BDFC1;" d="M203.35,374.094c0-0.371,0.01-0.741,0.015-1.111c18.987-4.873,56.649-6.29,82.857,21.563
	c19.098,20.296,21.862,42.199,19.813,59.667c-3.671,0.149-7.51,0.225-11.525,0.225C209.682,454.437,203.35,420.708,203.35,374.094z"
	/>
<path style="opacity:0.05;enable-background:new    ;" d="M311.816,291.217c42.069,7.487,73.854,41.742,73.854,82.876
	c0,43.162-5.439,75.273-73.588,79.792C349.92,415.48,342.602,336.182,311.816,291.217z"/>
<path style="fill:#5CB38E;" d="M210.834,168.136L210.834,168.136c15.567-23.54,41.906-37.7,70.128-37.7h34.691
	c49.321,0,89.304,39.983,89.304,89.304v41.059c0,44.265-35.884,80.15-80.15,80.15H140.908c-33.16,0-60.042-26.882-60.042-60.042
	v-27.944c0-33.16,26.882-60.042,60.042-60.042h23.823C183.285,192.921,200.601,183.612,210.834,168.136z"/>
<path style="fill:#495059;" d="M152.791,310.838L152.791,310.838c-10.836,0-19.621-8.784-19.621-19.621v-10.561
	c0-5.004,4.056-9.06,9.06-9.06h21.122c5.004,0,9.06,4.056,9.06,9.06v10.561C172.412,302.054,163.628,310.838,152.791,310.838z"/>
<g style="opacity:0.1;">
	<circle cx="356.449" cy="280.31" r="6.146"/>
	<circle cx="312.749" cy="289.69" r="6.146"/>
	<circle cx="337.759" cy="310.66" r="6.146"/>
</g>
<g>
	<ellipse style="fill:#FFA8CB;" cx="338.919" cy="196.26" rx="15.491" ry="7.947"/>
	<ellipse style="fill:#FFA8CB;" cx="234.919" cy="196.26" rx="15.491" ry="7.947"/>
</g>
<path style="opacity:0.05;enable-background:new    ;" d="M335.493,132.651c39.772,9.023,69.465,44.587,69.465,87.089v41.059
	c0,44.265-35.884,80.15-80.15,80.15h-48.635C347.003,299.737,359.009,186.454,335.493,132.651z"/>
<path style="fill:#498A68;" d="M285.278,421.376c-2.158,0-4.347-0.516-6.384-1.603c-6.615-3.532-9.115-11.758-5.582-18.373
	c7.057-13.218,17.724-21.664,21.23-24.44l0.287-0.227c5.872-4.664,14.413-3.688,19.077,2.184c4.665,5.871,3.687,14.413-2.184,19.077
	l-0.323,0.257c-2.664,2.108-9.738,7.71-14.132,15.939C294.824,418.769,290.13,421.376,285.278,421.376z"/>
<path style="fill:#CD5B5B;" d="M354.53,146.062L354.53,146.062c-36.77,5.395-74.131,5.395-110.901,0l0,0
	c-4.396-0.645-6.811-5.465-4.695-9.372l57.682-106.535c1.06-1.957,3.868-1.957,4.927,0l57.682,106.535
	C361.341,140.597,358.926,145.417,354.53,146.062z"/>
<path style="fill:#FAE17C;" d="M319.754,63.79c-20.46,18.219-43.162,31.493-63.301,40.543l-17.519,32.357
	c-1.194,2.205-0.944,4.7,0.29,6.572c26.182-8.286,62.685-25.022,95.248-52.29L319.754,63.79z"/>
<path style="fill:#CD5B5B;" d="M137.121,82.071c0,31.069-25.186,81.596-56.255,81.596S24.612,113.14,24.612,82.071
	s25.186-56.255,56.255-56.255S137.121,51.003,137.121,82.071z"/>
<path style="opacity:0.1;enable-background:new    ;" d="M75.336,26.09c-28.472,2.779-50.724,26.779-50.724,55.981
	c0,31.068,25.186,81.596,56.255,81.596c11.549,0,22.284-6.985,31.216-17.355C56.943,152.44,55.408,55.777,75.336,26.09z"/>
<path d="M172.376,230.429c3.394,0,6.146-2.752,6.146-6.146s-2.752-6.146-6.146-6.146s-6.146,2.752-6.146,6.146
	S168.981,230.429,172.376,230.429z M133.207,230.429c3.394,0,6.146-2.752,6.146-6.146s-2.752-6.146-6.146-6.146
	s-6.146,2.752-6.146,6.146S129.813,230.429,133.207,230.429z M493.796,398.021c-2.841-7.77-10.268-12.25-18.48-11.157
	c-31.636,4.224-62.02-1.566-82.199-15.504c-0.474-15.107-4.868-29.702-12.845-42.727c19.859-16.307,32.187-41.015,32.187-67.833
	v-41.06c0-33.221-17.163-64.137-45.084-81.821c-0.218-1.66-0.734-3.289-1.553-4.8L308.138,26.583
	c-1.803-3.328-5.274-5.396-9.059-5.396s-7.256,2.067-9.059,5.396l-57.683,106.535c-0.819,1.512-1.335,3.142-1.553,4.803
	c-10.372,6.805-19.374,15.744-26.207,26.077c-8.87,13.414-23.766,21.421-39.847,21.421h-6.77
	c-1.026-12.605-1.642-23.773-1.844-33.365c11.347-2.363,22.301-10.01,32.045-22.479c2.55-3.264,1.972-7.977-1.292-10.528
	c-3.265-2.551-7.978-1.972-10.528,1.292c-11.31,14.472-21.36,17.51-27.801,17.51c-5.707,0-11.512-2.292-17.313-6.813
	c8.359-16.008,13.392-34.137,13.392-48.966c0-22.567-11.796-42.418-29.535-53.751C124.068,19.869,136.06,15,148.542,15
	c26.883,0,48.755,21.872,48.755,48.755c0,7.941-1.909,17.709-5.374,27.506c-1.381,3.905,0.664,8.19,4.569,9.572
	c0.827,0.293,1.671,0.431,2.502,0.431c3.088,0,5.982-1.923,7.071-5c4.078-11.526,6.233-22.768,6.233-32.509
	C212.297,28.6,183.697,0,148.542,0c-18.256,0-35.71,7.955-47.745,21.524c-6.275-2.071-12.971-3.207-19.93-3.207
	c-35.154,0-63.754,28.6-63.754,63.755c0,17.175,6.741,38.78,17.592,56.384c11.081,17.976,24.625,29.063,38.762,31.951
	c0.448,17.205,2.615,35.193,6.435,53.603c-4.184,8.781-6.534,18.597-6.534,28.954v27.944c0,32.934,23.7,60.421,54.937,66.345
	c11.69,19.639,24.09,36.393,35.488,48.093c-1.196,3.333-1.543,6.93-0.95,10.52c1.688,10.225,10.427,17.647,20.78,17.647
	c1.148,0,2.309-0.095,3.45-0.284c4.676-0.772,9.461-2.248,14.3-4.397c4.194,11.825,11.472,21.895,23.989,29.321
	c-3.003,16.583-2.708,31.191,0.909,43.474c3.53,11.994,14.725,20.373,27.222,20.373c2.71,0,5.412-0.391,8.029-1.162
	c7.274-2.142,13.279-6.988,16.908-13.647c3.629-6.658,4.448-14.332,2.306-21.605c-0.886-3.01-0.883-7.941-0.033-13.987
	c4.379,0.219,8.969,0.338,13.808,0.338c0.091,0,0.179-0.002,0.271-0.002c0.984,12.791,3.816,24.385,8.318,33.856
	c4.68,9.846,14.75,16.208,25.655,16.208c4.233,0,8.328-0.927,12.172-2.754c6.849-3.255,12.021-8.982,14.562-16.127
	c2.541-7.145,2.148-14.851-1.107-21.699c-1.843-3.879-2.976-10.178-3.191-17.421c2.405-0.882,4.674-1.831,6.814-2.845
	c39.14-1.784,88.807-7.253,128.927-32.867C493.852,413.867,496.611,405.723,493.796,398.021z M299.08,41.357l52.796,97.511
	c-35.042,4.991-70.551,4.991-105.593,0L299.08,41.357z M141.115,152.065c0.196,9.654,0.799,20.821,1.8,33.356h-2.007
	c-19.268,0-36.663,8.123-48.98,21.109c-1.976-12.37-3.141-24.468-3.463-36.162c12.573-2.637,24.669-11.764,34.972-26.452
	C129.145,148.071,135.102,150.817,141.115,152.065z M47.473,130.585c-9.332-15.139-15.361-34.181-15.361-48.513
	c0-26.883,21.871-48.755,48.754-48.755s48.755,21.872,48.755,48.755c0,14.332-6.03,33.374-15.361,48.513
	c-10.021,16.258-22.193,25.583-33.394,25.583C69.666,156.168,57.495,146.843,47.473,130.585z M146.656,348.449h17.58l0.09,0.584
	c1.723,11.163,3.271,21.202,4.521,29.643C161.658,370.397,154.056,360.059,146.656,348.449z M184.628,408.427
	c-2.046,0.337-3.999-0.389-5.333-1.752c1.205-0.021,2.41-0.326,3.508-0.935c2.621-1.456,4.124-4.333,3.82-7.316
	c-0.089-0.873-0.199-1.847-0.319-2.868c3.465-1.066,6.849-2.758,9.994-4.683c0.281,4.497,0.721,8.878,1.397,13.111
	C193.176,406.247,188.796,407.739,184.628,408.427z M195.868,372.785c-4.493,3.591-8.378,6.115-11.617,7.553
	c-1.286-8.849-2.953-19.676-4.837-31.89h20.331C197.288,356.322,195.991,364.467,195.868,372.785z M265.259,490.013
	c-1.712,3.14-4.544,5.426-7.975,6.436c-1.241,0.365-2.516,0.551-3.791,0.551c-5.891,0-11.169-3.953-12.835-9.613
	c-3.132-10.638-2.654-22.683-1.156-32.8c7.424,2.562,16.1,4.506,26.23,5.749c-1.054,7.972-0.852,14.507,0.615,19.487
	C267.357,483.253,266.97,486.872,265.259,490.013z M341.355,488.092c-1.198,3.37-3.637,6.071-6.869,7.606
	c-1.816,0.863-3.745,1.301-5.733,1.301c-5.147,0-9.899-3.001-12.107-7.647c-3.64-7.657-5.974-17.173-6.859-27.829
	c10.012-0.562,18.828-1.697,26.594-3.342c0.439,6.363,1.621,13.724,4.45,19.677C342.368,481.088,342.554,484.723,341.355,488.092z
	 M366.199,426.873c-1.797,2.103-5.152,6.026-12.569,9.849c-0.456,0.174-0.889,0.391-1.296,0.645
	c-10.277,4.962-27.697,9.569-57.823,9.569c-29.329,0-46.615-4.367-56.992-9.176c-0.308-0.177-0.634-0.327-0.971-0.461
	c-8.23-4.001-11.839-8.218-13.727-10.427c-7.39-8.647-11.971-20.493-11.971-52.779c0-8.832,1.619-17.435,4.786-25.645h97.117
	c4.142,0,7.5-3.358,7.5-7.5s-3.358-7.5-7.5-7.5H140.908c-28.972,0-52.542-23.57-52.542-52.542v-27.944
	c0-28.972,23.57-52.542,52.542-52.542h10.148c0.004,0,0.007,0,0.01,0c0.004,0,0.007,0,0.011,0h13.654
	c21.13,0,40.704-10.523,52.358-28.148c5.348-8.088,12.3-15.134,20.279-20.673c1.565,0.949,3.311,1.61,5.171,1.883
	c18.758,2.752,37.649,4.128,56.54,4.128c18.89,0,37.781-1.376,56.539-4.128c1.886-0.277,3.654-0.954,5.236-1.924
	c22.713,15.092,36.603,40.707,36.603,68.181v41.059c0,32.522-21.857,61.309-53.15,70.005c-3.991,1.109-6.327,5.243-5.218,9.234
	c0.922,3.319,3.937,5.494,7.222,5.494c0.664,0,1.34-0.089,2.012-0.276c6.934-1.927,13.48-4.678,19.554-8.117
	c6.745,11.284,10.293,23.927,10.293,36.954C378.17,398.031,376.168,415.209,366.199,426.873z M478.858,405.644
	c-30.207,19.285-67.034,26.268-99.784,29.118c9.702-12.46,12.862-28.383,13.768-46.001c22.698,12.32,53.194,17.145,84.459,12.971
	c1.19-0.159,1.999,0.326,2.407,1.44C480.279,404.736,479.21,405.419,478.858,405.644z M319.266,165.288c-4.142,0-7.5,3.358-7.5,7.5
	v7.719c0,4.142,3.358,7.5,7.5,7.5s7.5-3.358,7.5-7.5v-7.719C326.766,168.646,323.408,165.288,319.266,165.288z M163.352,264.096
	H142.23c-9.131,0-16.56,7.429-16.56,16.56v10.561c0,14.954,12.166,27.121,27.121,27.121s27.121-12.167,27.121-27.121v-10.561
	C179.912,271.525,172.484,264.096,163.352,264.096z M164.912,291.217c0,6.683-5.438,12.121-12.121,12.121h-0.001
	c-6.683,0-12.121-5.438-12.121-12.121v-10.561c0-0.86,0.7-1.56,1.56-1.56h21.122c0.86,0,1.56,0.7,1.56,1.56v10.561H164.912z
	 M254.571,165.288c-4.142,0-7.5,3.358-7.5,7.5v7.719c0,4.142,3.358,7.5,7.5,7.5c4.142,0,7.5-3.358,7.5-7.5v-7.719
	C262.071,168.646,258.714,165.288,254.571,165.288z M318.722,385.97c-3.79-1.664-8.216,0.058-9.883,3.85
	c-0.398,0.904-0.997,1.679-1.786,2.306l-0.308,0.245c-2.998,2.374-10.962,8.677-16.094,18.288c-1.06,1.984-3.118,3.217-5.373,3.217
	c-0.999,0-1.958-0.242-2.852-0.719c-1.432-0.765-2.48-2.041-2.953-3.595c-0.472-1.553-0.311-3.198,0.454-4.63
	c6.324-11.843,16.068-19.557,19.273-22.094l0.294-0.232c0.734-0.583,1.563-0.979,2.463-1.178c4.044-0.893,6.6-4.896,5.707-8.941
	s-4.896-6.598-8.941-5.707c-3.145,0.694-6.024,2.067-8.552,4.075l-0.284,0.225c-3.808,3.015-15.396,12.188-23.191,26.787
	c-2.652,4.967-3.211,10.669-1.574,16.056s5.273,9.815,10.242,12.467c3.048,1.626,6.476,2.485,9.915,2.485
	c7.803,0,14.933-4.273,18.605-11.152c3.659-6.854,9.843-11.749,12.186-13.603l0.317-0.252c2.677-2.126,4.816-4.897,6.185-8.015
	C324.238,392.061,322.515,387.636,318.722,385.97z"/>
<g>
</g>
<g>
</g>
<g>
</g>
<g>
</g>
<g>
</g>
<g>
</g>
<g>
</g>
<g>
</g>
<g>
</g>
<g>
</g>
<g>
</g>
<g>
</g>
<g>
</g>
<g>
</g>
<g>
</g>
</svg>
