<?xml version="1.0" encoding="iso-8859-1"?>
<!-- Generator: Adobe Illustrator 19.0.0, SVG Export Plug-In . SVG Version: 6.00 Build 0)  -->
<svg version="1.1" id="Capa_1" xmlns="http://www.w3.org/2000/svg" xmlns:xlink="http://www.w3.org/1999/xlink" x="0px" y="0px"
	 viewBox="0 0 511.999 511.999" style="enable-background:new 0 0 511.999 511.999;" xml:space="preserve">
<path style="fill:#498A68;" d="M356.618,406.678c-14.053,0-26.967-7.536-31.566-10.221l-0.586-0.34
	c-6.422-3.676-8.646-11.862-4.969-18.283c3.676-6.421,11.861-8.646,18.282-4.97l0.779,0.451c10.608,6.191,16.483,6.932,19.548,6.465
	c7.322-1.114,14.149,3.907,15.266,11.22c1.118,7.315-3.906,14.149-11.22,15.267C360.298,406.55,358.447,406.678,356.618,406.678z"/>
<path style="fill:#5CB38E;" d="M237.958,443.513c-62.52,0-134.468,0-187.141-33.628c-9.013-5.754-3.8-19.652,6.799-18.237
	c41.711,5.568,76.748-5.049,96.727-22.248L237.958,443.513z"/>
<path style="opacity:0.1;enable-background:new    ;" d="M130.761,383.588c0.697,19.966,3.762,39.896,16.069,56.468
	c30.478,3.458,61.838,3.458,91.129,3.458L154.344,369.4C147.94,374.913,139.983,379.744,130.761,383.588z"/>
<g>
	<path style="fill:#498A68;" d="M209.97,504.499c-0.53,0-1.065-0.02-1.602-0.061c-11.349-0.873-19.843-10.781-18.971-22.131
		c0.792-10.301-0.057-44.654-1.535-52.261c-3.392-10.212,1.681-21.446,11.791-25.564c10.541-4.294,22.569,0.769,26.865,11.312
		c5.555,13.638,4.234,66.374,3.98,69.674C229.667,496.279,220.636,504.499,209.97,504.499z M188.331,431.322
		c0.003,0.008,0.006,0.016,0.009,0.023C188.337,431.338,188.334,431.329,188.331,431.322z"/>
	<path style="fill:#498A68;" d="M284.719,504.499c-0.531,0-1.066-0.02-1.604-0.062c-11.349-0.874-19.842-10.782-18.969-22.132
		c0.793-10.298-0.056-44.646-1.535-52.258c-3.392-10.212,1.679-21.445,11.789-25.565c10.538-4.295,22.568,0.766,26.866,11.308
		c5.559,13.642,4.235,66.379,3.981,69.678C304.415,496.28,295.384,504.499,284.719,504.499z M263.083,431.325
		c0.002,0.008,0.005,0.015,0.008,0.022C263.089,431.34,263.085,431.332,263.083,431.325z"/>
</g>
<path style="opacity:0.1;enable-background:new    ;" d="M305.563,465.106c-0.052-17.41-0.853-40.863-4.297-49.315
	c-4.297-10.542-16.328-15.603-26.866-11.308c-10.11,4.12-15.182,15.353-11.789,25.565c1.153,5.934,1.923,28.12,1.83,42.49
	C280.388,471.487,294.017,469.035,305.563,465.106z"/>
<path style="opacity:0.1;enable-background:new    ;" d="M199.652,404.481c-10.11,4.119-15.182,15.352-11.791,25.564
	c1.002,5.16,1.715,22.627,1.823,36.546c11.665,3.412,25.301,5.456,41.105,6.211c0.159-17.342-0.288-47.229-4.272-57.01
	C222.223,405.251,210.194,400.188,199.652,404.481z"/>
<path style="fill:#5CB38E;" d="M339.383,370.792c0,48.118-6.536,82.936-94.102,82.936s-94.102-34.817-94.102-82.936
	s42.13-87.126,94.102-87.126S339.383,322.674,339.383,370.792z"/>
<path style="fill:#9BDFC1;" d="M339.383,370.792c0-0.383-0.01-0.765-0.016-1.147c-19.6-5.03-58.478-6.493-85.531,22.258
	c-19.714,20.951-22.567,43.56-20.452,61.592c3.79,0.154,7.752,0.233,11.897,0.233C332.847,453.728,339.383,418.91,339.383,370.792z"
	/>
<path style="opacity:0.05;enable-background:new    ;" d="M227.417,285.241c-43.426,7.728-76.238,43.089-76.238,85.551
	c0,44.555,5.615,77.702,75.963,82.367C188.082,413.514,195.637,331.657,227.417,285.241z"/>
<path style="fill:#5CB38E;" d="M331.657,158.189L331.657,158.189c-16.069-24.3-43.258-38.916-72.391-38.916h-35.811
	c-50.913,0-92.186,41.273-92.186,92.186v42.383c0,45.693,37.042,82.736,82.736,82.736h189.834c34.23,0,61.98-27.749,61.98-61.98
	v-28.846c0-34.23-27.749-61.98-61.98-61.98h-24.592C360.096,183.773,342.221,174.164,331.657,158.189z"/>
<g style="opacity:0.1;">
	<circle cx="181.342" cy="273.992" r="6.344"/>
	<circle cx="226.453" cy="283.672" r="6.344"/>
	<circle cx="200.642" cy="305.312" r="6.344"/>
</g>
<g>
	<ellipse style="fill:#FFA8CB;" cx="194.082" cy="199.591" rx="15.991" ry="8.203"/>
	<ellipse style="fill:#FFA8CB;" cx="301.443" cy="199.591" rx="15.991" ry="8.203"/>
</g>
<path style="opacity:0.05;enable-background:new    ;" d="M202.975,121.558c-41.055,9.314-71.706,46.025-71.706,89.899v42.383
	c0,45.693,37.042,82.736,82.736,82.736h50.204C191.094,294.036,178.701,177.097,202.975,121.558z"/>
<path style="fill:#498A68;" d="M200.952,405.273c-2.719,0-5.424-0.213-8.067-0.654c-7.298-1.217-12.229-8.12-11.012-15.418
	c1.218-7.299,8.13-12.223,15.418-11.012c6.515,1.087,14.222-1.086,17.332-3.797c5.579-4.864,14.04-4.282,18.902,1.294
	c4.862,5.577,4.283,14.04-1.294,18.902C224.483,401.344,212.617,405.273,200.952,405.273z"/>
<path style="fill:#DEE2E5;" d="M298.595,9.433c-10.29,0.489-19.361,4.974-25.868,11.838c-3.575,3.771-9.471,4.038-13.289,0.512
	c-10.746-9.924-25.474-15.457-41.194-14.082s-29.263,9.382-38.123,21.021c-3.148,4.135-9,4.897-13.176,1.803
	c-7.6-5.63-17.312-8.472-27.53-7.167c-20.517,2.621-35.328,21.548-33.007,42.102c1.418,12.556,8.825,23.053,19.104,28.88
	c4.595,2.605,7.613,7.302,8.073,12.564l1.618,18.495l185.262-16.208l-1.618-18.494c-0.46-5.261,1.696-10.412,5.769-13.775
	c9.11-7.523,14.583-19.147,13.798-31.758C337.129,24.519,319.257,8.451,298.595,9.433z"/>
<g style="opacity:0.1;">
	<path d="M193.191,127.826c-3.847,0-7.121-2.942-7.463-6.847l-2.853-32.604c-0.36-4.126,2.691-7.764,6.818-8.125
		c4.123-0.355,7.764,2.692,8.125,6.818l2.852,32.604c0.36,4.127-2.691,7.764-6.818,8.126
		C193.632,127.817,193.41,127.826,193.191,127.826z"/>
	<path d="M262.456,121.767c-3.847,0-7.121-2.942-7.463-6.847l-2.852-32.604c-0.36-4.126,2.691-7.764,6.818-8.125
		c4.126-0.348,7.765,2.691,8.125,6.818l2.853,32.604c0.36,4.126-2.691,7.764-6.818,8.125
		C262.896,121.757,262.675,121.767,262.456,121.767z"/>
</g>
<path style="fill:#495059;" d="M314.167,146.159l-166.345,14.553c-5.224,0.457-9.829-3.407-10.286-8.631l-2.334-26.68
	l185.262-16.208l2.334,26.68C323.255,141.096,319.391,145.702,314.167,146.159z"/>
<path style="opacity:0.05;enable-background:new    ;" d="M127.805,26.82c-14.175,6.864-23.251,22.229-21.398,38.641
	c1.424,12.608,8.887,23.14,19.232,28.952c4.586,2.577,7.496,7.364,7.955,12.604l3.942,45.062c0.457,5.224,5.062,9.088,10.286,8.631
	l36.597-3.202c-12.723-16.64-18.017-58.047-19.8-76.541c-0.496-5.15-3.449-9.734-7.936-12.31
	C141.743,60.086,127.771,39.82,127.805,26.82z"/>
<path style="fill:#FAE17C;" d="M168.01,264.447c-11.55-21.922-41.833-44.819-64.948-32.641c-23.114,12.178-21.351,50.102-9.8,72.025
	c8.253,15.665,23.934,24.704,39.744,24.621c2.612-0.013,5,1.463,6.12,3.823l33.815,71.239c4.446,9.367,15.798,13.145,24.971,8.312
	l0,0c9.173-4.833,12.475-16.332,7.263-25.296l-39.637-68.171c-1.313-2.258-1.181-5.063,0.308-7.209
	C174.853,298.156,176.264,280.112,168.01,264.447z"/>
<path style="fill:#A3E3FF;" d="M398.37,416.767l17.294-1.028c2.775-0.165,5.512-0.8,8.037-1.965
	c13.369-6.171,23.172-18.511,25.979-33.173c1.12-5.85-3.623-11.178-9.569-10.825l-71.462,4.248
	c-5.946,0.353-10.024,6.206-8.219,11.882c4.525,14.226,15.72,25.318,29.726,29.862C392.801,416.626,395.595,416.932,398.37,416.767z
	"/>
<path d="M409.883,290.007c2.722-3.123,2.397-7.86-0.727-10.582c-3.123-2.721-7.86-2.396-10.582,0.727
	c-1.769,2.029-4.32,3.193-7.001,3.193c-2.682,0-5.233-1.164-7.002-3.193c-2.722-3.123-7.46-3.447-10.582-0.727
	c-3.122,2.722-3.448,7.46-0.727,10.582c4.618,5.299,11.292,8.338,18.31,8.338C398.591,298.345,405.264,295.306,409.883,290.007z
	 M473.319,274.598v-28.845c0-38.311-31.168-69.48-69.479-69.48h-24.592c-16.682,0-32.133-8.307-41.334-22.222
	c-2.619-3.96-5.549-7.72-8.736-11.244c0.909-2.345,1.326-4.918,1.093-7.588l-3.953-45.174c-0.245-2.804,0.903-5.547,3.073-7.339
	c1.353-1.118,2.656-2.327,3.874-3.595c2.869-2.987,2.773-7.735-0.214-10.604c-2.986-2.869-7.734-2.774-10.604,0.214
	c-0.819,0.854-1.697,1.668-2.608,2.419c-5.975,4.935-9.14,12.49-8.465,20.212l0.965,11.022l-170.318,14.901l-0.965-11.022
	c-0.675-7.721-5.104-14.613-11.846-18.435c-8.517-4.829-14.255-13.5-15.35-23.197c-1.868-16.543,10.021-31.715,26.505-33.82
	c7.895-1.005,15.746,1.036,22.116,5.753c7.439,5.512,18.031,4.039,23.607-3.287c7.89-10.364,19.849-16.958,32.809-18.092
	c12.964-1.136,25.883,3.283,35.452,12.12c6.766,6.247,17.452,5.859,23.82-0.862c5.453-5.753,12.833-9.129,20.781-9.506
	c15.998-0.774,30.033,11.173,31.841,27.174c0.465,4.117,4.182,7.078,8.294,6.611c4.116-0.465,7.076-4.179,6.61-8.294
	c-2.692-23.832-23.554-41.602-47.457-40.474c-11.833,0.562-22.826,5.595-30.956,14.171c-0.769,0.809-1.978,0.88-2.758,0.161
	c-12.667-11.697-29.78-17.542-46.934-16.043c-17.161,1.502-32.993,10.231-43.438,23.95c-0.641,0.843-1.848,0.984-2.743,0.319
	c-9.495-7.034-21.196-10.082-32.945-8.58c-24.568,3.138-42.292,25.74-39.51,50.382c1.632,14.454,10.177,27.374,22.857,34.563
	c2.447,1.387,4.055,3.89,4.3,6.693l1.618,18.49c0,0.002,0,0.003,0,0.004c0,0.002,0,0.003,0.001,0.005l2.334,26.676
	c0.384,4.394,2.42,8.377,5.725,11.277c-7.877,14.52-12.02,30.753-12.02,47.446v10.011c-8.644-1.362-16.892-0.151-24.203,3.701
	c-12.792,6.74-20.563,20.394-21.883,38.447c-1.074,14.701,2.269,31.041,8.943,43.709c9.279,17.612,26.85,28.545,45.942,28.625
	l11.705,24.659c-0.286,2.488-0.472,4.991-0.548,7.491c-20.877,14.469-52.348,20.487-85.118,16.112
	c-8.357-1.115-15.926,3.449-18.817,11.361c-2.866,7.841-0.057,16.132,6.99,20.631c41.306,26.372,92.448,32.033,132.791,33.882
	c0.746,0.358,1.505,0.707,2.277,1.047c0.432,12.281,0.476,25.294,0.068,30.595c-0.576,7.487,1.798,14.75,6.686,20.451
	c4.887,5.701,11.701,9.158,19.191,9.733c0.72,0.055,1.451,0.083,2.173,0.083c14.585,0,26.887-11.401,28.007-25.957
	c0.127-1.639,0.434-12.178,0.313-24.893c2.285,0.051,4.61,0.08,6.992,0.08c3.997,0,7.855-0.072,11.58-0.214
	c0.162,8.976,0.098,16.941-0.193,20.715c-0.577,7.486,1.797,14.749,6.684,20.451c4.887,5.701,11.7,9.159,19.185,9.735
	c0.721,0.055,1.455,0.083,2.182,0.083c14.584,0,26.885-11.401,28.005-25.955c0.194-2.514,0.615-19.977,0.069-36.851
	c7.301-3.754,13.287-8.411,18.076-14.015c5.779-6.761,9.48-14.552,11.853-22.911c4.79,1.266,9.441,1.912,13.894,1.912
	c2.264,0,4.506-0.167,6.666-0.497c1.942-0.297,3.795-0.869,5.54-1.67c5.457,4.836,11.908,8.583,19.019,10.89
	c2.887,0.937,5.932,1.409,9.075,1.409c0.629,0,1.262-0.019,1.897-0.057l17.294-1.028c3.817-0.227,7.429-1.116,10.735-2.643
	c15.671-7.233,26.961-21.653,30.201-38.572c0.969-5.059-0.43-10.185-3.837-14.066c-3.427-3.903-8.378-5.962-13.543-5.656
	l-71.462,4.248c-4.601,0.274-8.781,2.387-11.72,5.854c-1.094-0.004-4.02-0.358-9.622-3.12c-0.145-8.613-1.515-17.045-4.09-25.193
	h61.068C442.151,344.077,473.319,312.909,473.319,274.598z M367.793,382.25c0.177-0.258,0.581-0.696,1.303-0.739l71.462-4.248
	c0.037-0.002,0.073-0.003,0.109-0.003c0.657,0,1.075,0.36,1.271,0.583c0.238,0.271,0.496,0.725,0.377,1.348
	c-2.332,12.18-10.465,22.563-21.756,27.774c-1.602,0.739-3.397,1.172-5.339,1.288l-17.294,1.028
	c-1.943,0.114-3.776-0.102-5.453-0.646c-6.622-2.148-12.452-6.025-16.961-11.093c-0.041-0.049-0.085-0.095-0.127-0.143
	c-3.484-3.955-6.17-8.625-7.804-13.765C367.385,383.028,367.589,382.547,367.793,382.25z M346.6,385.447
	c2.28,0.807,4.409,1.35,6.406,1.652c0.089,0.361,0.164,0.723,0.277,1.081c1.227,3.858,2.894,7.518,4.917,10.942
	c-3.888,0.199-8.107-0.335-12.584-1.612C346.106,393.538,346.413,389.504,346.6,385.447z M313.646,117.317l1.681,19.209
	c0.096,1.096-0.717,2.065-1.813,2.161l-166.346,14.553c-0.692,0.064-1.167-0.217-1.456-0.458c-0.288-0.242-0.645-0.674-0.704-1.355
	l-1.681-19.208L313.646,117.317z M54.854,403.564c-1.083-0.691-1.41-1.646-0.975-2.838c0.32-0.875,1.056-1.865,2.745-1.643
	c32.37,4.322,63.927-0.715,87.341-13.533c0.82,17.577,3.862,34.74,14.517,48.155C124.519,430.789,86.235,423.6,54.854,403.564z
	 M158.727,356.078l-12.824-27.016c-2.339-4.933-7.382-8.109-12.864-8.109c-0.082,0-0.162,0.001-0.245,0
	c-13.391,0-26.288-8.078-32.895-20.618c-5.341-10.135-8.12-23.785-7.255-35.623c1.19-16.28,8.224-23.271,13.915-26.27
	c12.533-6.602,40.118,1.606,54.816,29.502c6.636,12.595,5.972,27.877-1.692,38.933c-3.138,4.527-3.384,10.514-0.627,15.252
	l39.637,68.171c1.483,2.552,1.853,5.52,1.038,8.357c-0.256,0.891-0.629,1.724-1.086,2.5c-0.081,0.131-0.161,0.263-0.234,0.399
	c-0.984,1.517-2.343,2.766-3.994,3.635c-2.612,1.376-5.591,1.621-8.395,0.688c-2.8-0.932-5.039-2.914-6.305-5.581l-20.983-44.204
	C158.732,356.088,158.73,356.083,158.727,356.078z M223.021,484.891c-0.522,6.789-6.256,12.107-13.052,12.107
	c-0.341,0-0.685-0.013-1.026-0.039c-3.492-0.268-6.671-1.88-8.95-4.539c-2.279-2.659-3.387-6.046-3.118-9.538
	c0.418-5.439,0.398-16.287,0.136-26.62c7.767,1.969,16.501,3.34,26.27,4.134C223.421,473.231,223.102,483.774,223.021,484.891z
	 M297.769,484.893c-0.549,7.129-6.831,12.621-14.079,12.066c-3.491-0.268-6.67-1.881-8.949-4.54
	c-2.278-2.659-3.386-6.046-3.117-9.538c0.376-4.872,0.387-14.107,0.219-22.905c9.774-1.012,18.447-2.647,26.103-4.924
	C298.255,469.833,297.883,483.332,297.769,484.893z M249.048,329.077c-4.143,0-7.5,3.358-7.5,7.5c0,4.142,3.357,7.5,7.5,7.5h77.822
	c3.319,8.55,5.013,17.512,5.013,26.714c0,24.764-2.077,42.542-12.415,54.64c-2.151,2.517-6.457,7.55-16.901,12.035
	c-0.251,0.09-0.495,0.196-0.733,0.311c-10.948,4.548-28.385,8.45-56.553,8.45c-31.151,0-49.175-4.773-59.816-9.914
	c-0.409-0.256-0.844-0.473-1.301-0.648c-7.714-3.971-11.202-8.05-13.069-10.234c-5.664-6.627-9.733-15.067-11.473-32.492
	l6.546,13.79c3.034,6.394,8.403,11.146,15.118,13.381c2.681,0.893,5.43,1.336,8.165,1.336c4.115,0,8.197-1.003,11.959-2.985
	c3.029-1.596,5.646-3.725,7.768-6.264c10.793-1.468,20.841-5.727,27.98-11.952c1.659-1.446,3.071-3.131,4.196-5.009
	c2.13-3.553,0.975-8.159-2.577-10.289c-3.552-2.129-8.159-0.976-10.288,2.578c-0.315,0.525-0.714,1-1.187,1.412
	c-3.184,2.776-7.419,5.033-12.147,6.573c-0.021-3.967-0.966-7.884-2.814-11.496c2.855-1.009,5.372-2.363,7.212-3.967
	c0.646-0.564,1.383-0.971,2.189-1.21c3.972-1.176,6.238-5.349,5.063-9.32c-1.175-3.972-5.352-6.239-9.32-5.063
	c-2.888,0.854-5.509,2.297-7.789,4.286c-0.525,0.455-2.474,1.371-5.098,1.875l-17.882-30.755c8.758,2.777,17.94,4.219,27.29,4.219
	c4.143,0,7.5-3.358,7.5-7.5c0-4.142-3.357-7.5-7.5-7.5c-14.407,0-28.339-4.077-40.411-11.785l-1.315-2.262
	c10.728-15.792,11.645-36.468,2.367-54.08c-6.675-12.668-18.262-24.664-30.994-32.09c-1.628-0.95-3.256-1.794-4.882-2.574v-14.828
	c0-15.411,4.148-30.362,12.013-43.476l164.038-14.351c1.151-0.101,2.264-0.317,3.332-0.632c2.639,2.929,5.077,6.042,7.249,9.326
	c11.985,18.126,32.115,28.948,53.847,28.948h24.592c30.04,0,54.479,24.439,54.479,54.48v28.845c0,30.04-24.438,54.48-54.479,54.48
	H249.048V329.077z M377.701,216.147c0-3.504-2.841-6.344-6.344-6.344c-3.504,0-6.344,2.841-6.344,6.344
	c0,3.504,2.84,6.344,6.344,6.344C374.861,222.491,377.701,219.651,377.701,216.147z M285.367,163.387
	c-10.188,0-18.477,8.289-18.477,18.476c0,4.142,3.357,7.5,7.5,7.5s7.5-3.358,7.5-7.5c0-1.917,1.56-3.476,3.477-3.476
	c1.917,0,3.477,1.56,3.477,3.476c0,4.142,3.357,7.5,7.5,7.5c4.143,0,7.5-3.358,7.5-7.5
	C303.843,171.675,295.555,163.387,285.367,163.387z M411.789,222.491c3.504,0,6.344-2.84,6.344-6.344
	c0-3.504-2.84-6.344-6.344-6.344s-6.344,2.841-6.344,6.344C405.444,219.651,408.285,222.491,411.789,222.491z M210.155,163.387
	c-10.188,0-18.477,8.289-18.477,18.476c0,4.142,3.357,7.5,7.5,7.5s7.5-3.358,7.5-7.5c0-1.917,1.559-3.476,3.477-3.476
	c1.917,0,3.477,1.56,3.477,3.476c0,4.142,3.357,7.5,7.5,7.5c4.143,0,7.5-3.358,7.5-7.5
	C228.632,171.675,220.343,163.387,210.155,163.387z"/>
<g>
</g>
<g>
</g>
<g>
</g>
<g>
</g>
<g>
</g>
<g>
</g>
<g>
</g>
<g>
</g>
<g>
</g>
<g>
</g>
<g>
</g>
<g>
</g>
<g>
</g>
<g>
</g>
<g>
</g>
</svg>
