<?xml version="1.0" encoding="iso-8859-1"?>
<!-- Generator: Adobe Illustrator 19.0.0, SVG Export Plug-In . SVG Version: 6.00 Build 0)  -->
<svg version="1.1" id="Capa_1" xmlns="http://www.w3.org/2000/svg" xmlns:xlink="http://www.w3.org/1999/xlink" x="0px" y="0px"
	 viewBox="0 0 512.001 512.001" style="enable-background:new 0 0 512.001 512.001;" xml:space="preserve">
<path style="fill:#498A68;" d="M345.023,504.488h-66.858c-13.032,0-23.597-10.564-23.597-23.597
	c0-13.032,10.564-23.597,23.597-23.597h66.858c13.032,0,23.597,10.564,23.597,23.597
	C368.619,493.924,358.054,504.488,345.023,504.488z"/>
<path style="opacity:0.1;enable-background:new    ;" d="M345.023,457.295h-66.858c-13.032,0-23.597,10.564-23.597,23.597
	c0,13.032,10.564,23.597,23.597,23.597h42.933c4.987-3.65,9.421-7.752,13.329-12.324c8.752-10.241,14.032-21.765,17.21-33.911
	C349.537,457.64,347.322,457.295,345.023,457.295z"/>
<path style="fill:#498A68;" d="M346.312,449.385c-4.434,0-8.831-1.912-11.864-5.607c-7.538-9.184-17.34-16.751-20.057-18.468
	c-7.161-4.526-9.297-13.999-4.771-21.16c4.526-7.161,13.998-9.298,21.16-4.771c5.552,3.509,17.895,13.381,27.379,24.936
	c5.374,6.548,4.424,16.212-2.123,21.587C353.182,448.243,349.736,449.385,346.312,449.385z"/>
<path style="fill:#5CB38E;" d="M228.125,499.919c-71.555,1.697-153.901,3.649-215.097-33.408
	c-10.472-6.341-4.883-22.39,7.287-21.058c47.89,5.241,87.703-7.862,110.101-28.089L228.125,499.919z"/>
<path style="opacity:0.1;enable-background:new    ;" d="M103.809,434.243c1.34,22.833,5.388,45.559,19.924,64.191
	c34.976,3.131,70.868,2.28,104.391,1.485l-97.709-82.555C123.236,423.847,114.26,429.593,103.809,434.243z"/>
<path style="fill:#5CB38E;" d="M336.819,408.702c0,55.087-7.483,94.948-107.731,94.948s-107.731-39.86-107.731-94.948
	s48.233-99.744,107.731-99.744S336.819,353.615,336.819,408.702z"/>
<path style="fill:#9BDFC1;" d="M336.819,408.702c0-0.439-0.012-0.875-0.018-1.313c-22.439-5.759-66.947-7.433-97.918,25.482
	c-22.57,23.986-25.836,49.869-23.415,70.513c4.339,0.176,8.875,0.266,13.62,0.266C329.336,503.65,336.819,463.789,336.819,408.702z"
	/>
<path style="opacity:0.05;enable-background:new    ;" d="M208.636,310.761c-49.716,8.848-87.279,49.33-87.279,97.941
	c0,51.008,6.428,88.956,86.965,94.297C163.605,457.612,172.253,363.9,208.636,310.761z"/>
<path style="fill:#5CB38E;" d="M330.493,181.562L330.493,181.562c-15.902-29.317-45.452-48.7-78.677-51.606l-40.841-3.573
	c-58.065-5.08-109.254,37.872-114.334,95.937l-4.229,48.338c-4.559,52.113,33.99,98.054,86.104,102.613l216.502,18.942
	c39.039,3.415,73.455-25.463,76.871-64.502l2.878-32.898c3.415-39.038-25.464-73.455-64.502-76.871l-28.047-2.454
	C360.373,213.578,340.947,200.835,330.493,181.562z"/>
<g style="opacity:0.1;">
	<circle cx="147.509" cy="298.626" r="7.263"/>
	<circle cx="197.988" cy="314.165" r="7.263"/>
	<circle cx="166.388" cy="336.275" r="7.263"/>
</g>
<g>
	
		<ellipse transform="matrix(0.0872 -0.9962 0.9962 0.0872 -47.3004 349.6705)" style="fill:#FFA8CB;" cx="167.157" cy="200.646" rx="9.392" ry="18.307"/>
	
		<ellipse transform="matrix(-0.0872 0.9962 -0.9962 -0.0872 525.4122 -58.7382)" style="fill:#FFA8CB;" cx="289.617" cy="211.346" rx="9.392" ry="18.307"/>
</g>
<path style="opacity:0.05;enable-background:new    ;" d="M187.39,126.946c-47.752,6.526-86.372,45.336-90.75,95.374l-4.229,48.338
	c-4.559,52.113,33.99,98.054,86.104,102.613l57.257,5.009C156.63,322.468,154.164,187.865,187.39,126.946z"/>
<path style="fill:#DEE2E5;" d="M318.27,168.394l-191.816-10.053c-14.942-0.783-26.42-13.531-25.637-28.472l0,0
	c0.783-14.942,13.531-26.42,28.473-25.637l191.816,10.053c14.942,0.783,26.42,13.531,25.637,28.473l0,0
	C345.96,157.699,333.212,169.177,318.27,168.394z"/>
<path style="opacity:0.05;enable-background:new    ;" d="M181.264,106.957l-51.974-2.724
	c-14.942-0.783-27.689,10.695-28.473,25.637l0,0c-0.783,14.942,10.695,27.69,25.637,28.473l54.617,2.863
	C164.979,147.547,167.657,118.837,181.264,106.957z"/>
<path style="fill:#80B0E3;" d="M321.106,114.286c-9.039-78.945-141-147.785-249.523-77.767
	c21.419,0.718,67.749,12.392,57.706,67.714L321.106,114.286z"/>
<path style="opacity:0.05;enable-background:new    ;" d="M129.29,104.233l58.922,3.088C186.239,44.878,103.511,27.5,71.584,36.518
	C93.003,37.236,139.333,48.911,129.29,104.233z"/>
<circle style="fill:#DEE2E5;" cx="68.902" cy="35.661" r="28.15"/>
<path style="opacity:0.05;enable-background:new    ;" d="M56.549,10.368c-8.88,4.347-15.203,13.246-15.757,23.82
	c-0.814,15.525,11.112,28.77,26.637,29.583c11.897,0.623,22.447-6.238,27.098-16.464C67.169,57.33,45.626,31.276,56.549,10.368z"/>
<path style="fill:#FAE17C;" d="M201.186,47.992l11.24,9.232c1.315,1.08,2.217,2.58,2.555,4.247l2.888,14.256
	c1.032,5.094,6.856,7.563,11.235,4.763l12.254-7.837c1.433-0.917,3.139-1.311,4.829-1.117l14.451,1.659
	c5.163,0.593,9.311-4.184,8.001-9.213l-3.667-14.076c-0.429-1.646-0.277-3.39,0.43-4.938l3.274-7.167
	c-13.783-9.383-29.636-17.041-46.809-22.312l-3.704,9.452c-0.621,1.584-1.769,2.906-3.25,3.742l-12.666,7.151
	C197.719,38.391,197.17,44.693,201.186,47.992z"/>
<path style="fill:#498A68;" d="M252.826,447.387c-4.407,0-8.781-1.89-11.814-5.547c-7.131-8.598-16.746-13.455-20.365-15.283
	l-0.435-0.221c-7.554-3.832-10.572-13.063-6.74-20.617c3.833-7.554,13.064-10.572,20.618-6.739l0.389,0.196
	c4.684,2.366,18.936,9.565,30.145,23.081c5.408,6.52,4.506,16.189-2.015,21.597C259.746,446.229,256.275,447.387,252.826,447.387z"
	/>
<path style="fill:#DEE2E5;" d="M471.527,246.528l-44.623,7.868c-4.379,0.772-7.527-4.016-5.153-7.776
	c4.403-6.975,8.115-16.708,5.449-31.83c-3.682-20.881,10.411-41.39,31.598-45.126c21.545-3.799,42.073,10.895,45.301,32.678
	C507.209,223.337,492.429,242.842,471.527,246.528z"/>
<path style="fill:#498A68;" d="M275.494,504.488h-66.858c-13.032,0-23.597-10.564-23.597-23.597
	c0-13.032,10.564-23.597,23.597-23.597h66.858c13.032,0,23.597,10.564,23.597,23.597
	C299.09,493.924,288.526,504.488,275.494,504.488z"/>
<path d="M511.516,201.241c-1.857-12.529-8.529-23.503-18.79-30.899c-10.263-7.398-22.778-10.263-35.232-8.066
	c-23.743,4.187-40.107,25.821-38.24,49.384c-2.753-0.541-5.535-0.945-8.337-1.19l-28.048-2.454
	c-19.389-1.696-36.503-12.922-45.784-30.032c-0.952-1.756-1.976-3.48-3.031-5.187c11.332-5.198,19.481-16.36,20.178-29.649
	c0.886-16.924-10.611-31.675-26.544-35.456c-5.962-32.289-30.745-63.312-67.388-83.9C210.415-4.232,150.059-7.591,97.504,14.412
	C91.383,6.186,81.784,0.639,70.768,0.061C61.265-0.43,52.125,2.797,45.049,9.169S33.801,24.286,33.303,33.795
	c-0.499,9.509,2.736,18.643,9.107,25.719c6.372,7.076,15.117,11.248,24.626,11.746c0.638,0.033,1.275,0.05,1.91,0.05
	c8.816,0,17.209-3.214,23.81-9.158c3.396-3.058,6.114-6.666,8.087-10.639c16.932,8.833,24.286,24.113,21.915,45.556
	c-15.925,2.37-28.555,15.717-29.43,32.406c-0.742,14.17,7.198,26.819,19.153,32.781c-13.226,17.07-21.418,37.757-23.313,59.408
	l-4.229,48.337c-3.207,36.654,13.268,70.567,40.887,91.06c-7.85,14.736-11.97,31.064-11.97,47.639c0,3.866,0.03,7.761,0.133,11.655
	c-23.869,15.097-57.42,21.52-92.86,17.64c-9.08-0.99-17.154,4.143-20.082,12.783c-2.9,8.558,0.353,17.458,8.094,22.146
	c23.733,14.372,51.82,24.026,85.867,29.514c24.392,3.932,51.148,5.719,86.079,5.719c1.902,0,3.84-0.007,5.792-0.017
	c3.011,0.493,6.131,0.924,9.359,1.296c3.815,1.647,8.01,2.553,12.397,2.553h66.858c0.467,0,0.931-0.015,1.393-0.035
	c0.425,0.017,0.849,0.035,1.278,0.035h66.858c17.147,0,31.096-13.95,31.096-31.097c0-12.16-7.02-22.706-17.216-27.815
	c0.649-0.43,1.285-0.882,1.89-1.379c9.733-7.99,11.151-22.409,3.162-32.142c-7.145-8.705-15.208-15.81-20.032-19.758
	c-0.136-1.529-0.317-3.053-0.523-4.573l50.962,4.459c2.333,0.204,4.658,0.305,6.973,0.305c18.396,0,36.036-6.397,50.296-18.362
	c16.054-13.471,25.901-32.386,27.728-53.263l2.878-32.897c1.265-14.462-1.55-28.966-7.969-41.844
	C498.472,248.578,515.096,225.402,511.516,201.241z M89.523,36.741c-0.289,5.508-2.705,10.574-6.804,14.265
	c-4.099,3.69-9.385,5.564-14.897,5.275c-5.508-0.289-10.574-2.705-14.265-6.804c-3.69-4.099-5.563-9.389-5.275-14.897
	s2.705-10.574,6.804-14.265c3.823-3.442,8.684-5.304,13.791-5.304c0.367,0,0.736,0.009,1.106,0.029
	C81.353,15.636,90.119,25.371,89.523,36.741z M104.526,36.63c0.081-2.936-0.197-5.803-0.798-8.558
	c48.209-20.031,103.503-16.888,149.226,8.8c31.168,17.51,52.657,42.965,59.109,69.43l-174.226-9.131
	C141.253,60.891,120.755,44.141,104.526,36.63z M108.307,130.261c0.274-5.226,2.566-10.033,6.455-13.534
	c3.628-3.267,8.24-5.033,13.086-5.033c0.349,0,0.699,0.009,1.049,0.027l191.816,10.053c10.788,0.565,19.104,9.802,18.54,20.59
	c-0.274,5.226-2.566,10.033-6.456,13.534c-3.889,3.501-8.915,5.279-14.135,5.005l-191.807-10.052c-0.003,0-0.006-0.001-0.009-0.001
	l-0.025-0.002C116.046,150.271,107.742,141.041,108.307,130.261z M16.913,460.094c-2.298-1.392-2.025-3.417-1.658-4.501
	c0.31-0.913,1.338-3,4.244-2.686c35.49,3.884,69.536-1.851,95.541-15.808c1.47,13.559,4.72,26.575,11.822,37.738
	c4.351,6.84,9.877,12.634,16.71,17.45C99.188,489.998,53.677,482.358,16.913,460.094z M361.119,480.892
	c0,8.876-7.221,16.097-16.097,16.097h-38.183c15.205-8.069,24.293-19.184,29.697-32.193h8.488
	C353.898,464.795,361.119,472.016,361.119,480.892z M344.179,420.168c2.697,2.658,5.515,5.656,8.182,8.905
	c2.742,3.341,2.255,8.29-1.084,11.032c-1.793,1.472-3.689,1.78-4.965,1.78c-1.3,0-2.556-0.333-3.676-0.931
	C343.546,434.244,343.984,427.28,344.179,420.168z M467.294,294.159l-2.879,32.897c-1.477,16.886-9.441,32.185-22.426,43.08
	c-12.985,10.895-29.439,16.081-46.319,14.605l-186.38-16.306c-4.134-0.355-7.764,2.691-8.125,6.818
	c-0.361,4.126,2.691,7.764,6.818,8.125l120.04,10.502c0.859,4.891,1.297,9.856,1.297,14.822c0,34.91-3.901,57.191-22.763,70.848
	c-0.706-16.526-14.366-29.755-31.063-29.755h-8.32c0.072-0.059,0.15-0.109,0.222-0.168c4.696-3.894,7.594-9.384,8.16-15.458
	c0.567-6.074-1.266-12.005-5.16-16.7c-12.207-14.719-27.508-22.448-32.536-24.988l-0.375-0.189c-1.24-0.629-2.54-1.147-3.864-1.539
	c-3.972-1.176-8.145,1.09-9.32,5.063c-1.176,3.972,1.091,8.145,5.063,9.32c0.454,0.135,0.903,0.314,1.347,0.539l0.388,0.196
	c4.338,2.191,17.54,8.86,27.753,21.175c1.336,1.611,1.965,3.646,1.771,5.731c-0.194,2.084-1.189,3.969-2.801,5.306
	c-1.798,1.492-3.708,1.805-4.994,1.805c-2.346,0-4.548-1.033-6.042-2.835c-8.126-9.799-18.754-15.168-22.745-17.184l-0.435-0.221
	c-1.11-0.564-2.042-1.351-2.769-2.341c-2.452-3.34-7.145-4.059-10.484-1.608c-3.339,2.451-4.059,7.145-1.608,10.484
	c2.101,2.863,4.894,5.228,8.075,6.842l0.448,0.228c3.238,1.636,11.839,5.981,17.972,13.375c0.973,1.173,2.053,2.228,3.214,3.168
	h-29.816c-2.994,0-5.957,0.426-8.806,1.266c-3.973,1.172-6.244,5.343-5.072,9.315c1.172,3.974,5.344,6.242,9.315,5.072
	c1.471-0.434,3.006-0.654,4.563-0.654h66.858c8.876,0,16.097,7.221,16.097,16.097c0,8.876-7.221,16.097-16.097,16.097h-66.858
	c-7.511,0-13.955-5.095-15.67-12.391c-0.948-4.032-4.984-6.532-9.018-5.584c-4.032,0.948-6.532,4.985-5.584,9.018
	c0.268,1.139,0.601,2.247,0.985,3.328c-40.572-9.66-48.766-33.299-50.21-66.937c0.006-0.333-0.004-0.667-0.042-1
	c-0.183-4.717-0.24-9.627-0.24-14.721c0-13.737,3.343-27.283,9.699-39.589c10.434,5.565,22.01,9.403,34.398,11.084
	c0.342,0.046,0.682,0.069,1.018,0.069c3.694-0.001,6.912-2.73,7.423-6.493c0.557-4.104-2.319-7.883-6.424-8.44
	c-12.695-1.722-24.383-6.106-34.587-12.504c-0.19-0.146-0.387-0.285-0.594-0.415c-0.173-0.108-0.351-0.202-0.529-0.295
	c-26.247-17.023-42.282-47.592-39.376-80.807l4.229-48.337c1.851-21.158,10.625-41.259,24.78-56.994l188.986,9.904
	c0.09,0.005,0.179,0.003,0.268,0.007c2.101,2.97,4.03,6.068,5.754,9.247c11.688,21.548,33.243,35.686,57.662,37.822l28.048,2.454
	c3.686,0.322,7.331,0.972,10.892,1.922c-0.499,6.958-2.837,11.706-5.093,15.28c-1.216,1.926-1.858,4.096-1.942,6.28
	c-2.492,0.973-4.354,3.284-4.603,6.129c-0.35,3.996,2.607,7.519,6.603,7.869c2.136,0.187,4.131-0.577,5.584-1.932
	c1.527,0.656,3.18,1.02,4.894,1.02c0.746,0,1.503-0.065,2.262-0.199l30.517-5.381C465.41,267.739,468.448,280.97,467.294,294.159z
	 M470.225,239.141l-39.599,6.983c3.749-7.549,5.354-15.724,4.872-24.728c0-0.001,0-0.001,0-0.002
	c-0.137-2.568-0.435-5.199-0.913-7.908c-3.012-17.081,8.434-33.425,25.514-36.437c1.852-0.327,3.704-0.488,5.544-0.488
	c6.537,0,12.89,2.04,18.314,5.95c6.946,5.007,11.465,12.44,12.723,20.929C499.15,220.118,487.282,236.134,470.225,239.141z
	 M386.306,330.645c-3.996-0.35-7.519,2.607-7.869,6.603c-0.35,3.996,2.606,7.519,6.603,7.869c3.996,0.35,7.519-2.606,7.869-6.602
	C393.258,334.517,390.302,330.995,386.306,330.645z M203.382,176.025c-3.099-2.75-7.838-2.466-10.588,0.631
	c-1.107,1.247-2.685,1.879-4.346,1.734c-1.655-0.145-3.105-1.042-3.978-2.462c-2.169-3.528-6.788-4.63-10.317-2.461
	c-3.528,2.169-4.63,6.789-2.461,10.317c3.335,5.424,9.11,8.994,15.449,9.549c0.581,0.051,1.16,0.076,1.738,0.076
	c5.737,0,11.294-2.47,15.134-6.796C206.762,183.514,206.479,178.774,203.382,176.025z M287.449,183.379
	c-3.098-2.749-7.839-2.465-10.588,0.632c-1.106,1.247-2.689,1.881-4.345,1.734c-1.655-0.145-3.105-1.042-3.978-2.462
	c-2.169-3.528-6.789-4.63-10.317-2.461c-3.528,2.169-4.63,6.789-2.461,10.317c3.335,5.424,9.11,8.994,15.449,9.549
	c0.581,0.051,1.16,0.076,1.738,0.076c5.737,0,11.295-2.47,15.134-6.797C290.828,190.867,290.546,186.127,287.449,183.379z
	 M370.62,244.389c-3.996-0.35-7.519,2.606-7.869,6.603c-0.35,3.996,2.607,7.519,6.603,7.869c3.996,0.35,7.519-2.607,7.869-6.603
	C377.572,248.261,374.616,244.738,370.62,244.389z"/>
<g>
</g>
<g>
</g>
<g>
</g>
<g>
</g>
<g>
</g>
<g>
</g>
<g>
</g>
<g>
</g>
<g>
</g>
<g>
</g>
<g>
</g>
<g>
</g>
<g>
</g>
<g>
</g>
<g>
</g>
</svg>
