<?xml version="1.0" encoding="iso-8859-1"?>
<!-- Generator: Adobe Illustrator 19.0.0, SVG Export Plug-In . SVG Version: 6.00 Build 0)  -->
<svg version="1.1" id="Capa_1" xmlns="http://www.w3.org/2000/svg" xmlns:xlink="http://www.w3.org/1999/xlink" x="0px" y="0px"
	 viewBox="0 0 512 512" style="enable-background:new 0 0 512 512;" xml:space="preserve">
<circle style="fill:#FAE17C;" cx="80.19" cy="81.19" r="72.69"/>
<g style="opacity:0.1;">
	<circle cx="56.44" cy="63.07" r="20.646"/>
	<path d="M107.41,83.232c0,15.784,12.796,28.58,28.58,28.58c3.959,0,7.729-0.805,11.157-2.26c3.697-8.716,5.744-18.301,5.744-28.365
		c0-8.185-1.373-16.045-3.867-23.387c-3.909-2.007-8.337-3.148-13.034-3.148C120.205,54.652,107.41,67.448,107.41,83.232z"/>
</g>
<path style="fill:#959BA0;" d="M342.83,384.663c-5.597,0-10.87-3.411-12.976-8.954c-2.721-7.165,0.882-15.18,8.047-17.901
	l0.353-0.134c4.288-1.637,17.335-6.619,32.702-5.915c7.656,0.35,13.579,6.84,13.229,14.496c-0.349,7.657-6.858,13.579-14.497,13.23
	c-9.589-0.43-18.271,2.874-21.537,4.12l-0.397,0.152C346.133,384.371,344.468,384.663,342.83,384.663z"/>
<path style="fill:#DEE2E5;" d="M255.497,437.446c-62.046,5.428-133.449,11.675-188.641-17.125
	c-9.445-4.928-5.478-19.174,5.164-18.69c41.879,1.904,75.728-11.675,94.062-30.478L255.497,437.446z"/>
<path style="opacity:0.1;enable-background:new    ;" d="M143.908,387.282c2.425,19.754,7.197,39.267,20.85,54.644
	c30.547,0.786,61.669-1.937,90.738-4.48l-89.415-66.292C160.204,377.181,152.727,382.666,143.908,387.282z"/>
<g>
	<path style="fill:#959BA0;" d="M223.156,503.508c-5.311,0-10.63-1.97-14.768-5.934c-8.514-8.158-8.803-21.673-0.644-30.187
		c4.88-5.093,8.248-12.948,9.241-21.551c0.999-8.655-0.765-14.679-1.776-16.239c-6.408-9.898-3.579-23.117,6.32-29.525
		c9.895-6.407,23.116-3.58,29.524,6.319c14.166,21.881,12.527,64.445-12.477,90.539
		C234.382,501.305,228.773,503.508,223.156,503.508z"/>
	<path style="fill:#959BA0;" d="M317.053,492.964c-0.732,0-1.469-0.038-2.213-0.114c-11.729-1.208-20.259-11.696-19.05-23.425
		c1.057-10.266-5.713-30.925-9.957-35.891c-9.017-7.033-10.912-20-4.153-29.34c6.912-9.553,20.26-11.694,29.812-4.782
		c18.59,13.45,28.897,53.77,26.773,74.387C337.133,484.785,327.86,492.964,317.053,492.964z M286.45,433.998
		c0.003,0.003,0.007,0.006,0.012,0.009C286.457,434.003,286.454,434.001,286.45,433.998z"/>
</g>
<path style="opacity:0.1;enable-background:new    ;" d="M311.491,399.412c-9.552-6.912-22.9-4.77-29.812,4.782
	c-6.758,9.34-4.863,22.307,4.153,29.34c3.579,4.188,8.954,19.536,9.917,30.4c16.425-3.396,29.916-8.319,40.776-14.912
	C332.797,429.789,324.033,408.486,311.491,399.412z"/>
<path style="opacity:0.1;enable-background:new    ;" d="M221.528,400.072c-9.898,6.408-12.728,19.627-6.32,29.525
	c1.011,1.561,2.775,7.585,1.776,16.239c-0.929,8.051-3.939,15.446-8.321,20.536c9.653,1.995,20.428,2.99,32.387,2.99
	c4.529,0,9.312-0.142,14.29-0.418c7.728-22.567,5.476-47.473-4.288-62.554C244.644,396.492,231.423,393.664,221.528,400.072z"/>
<path style="fill:#DEE2E5;" d="M349.838,356.47c4.178,47.753,0.715,82.875-86.188,90.478
	c-86.902,7.603-96.411-26.383-100.589-74.137c-4.178-47.753,34.247-90.123,85.824-94.636S345.66,308.716,349.838,356.47z"/>
<path style="fill:#5CB38E;" d="M325.362,384.274c1.123,12.84-8.375,24.159-21.214,25.282c-12.84,1.123-24.159-8.375-25.282-21.214
	c-1.123-12.84,7.559-33.48,20.399-34.603C312.104,352.615,324.238,371.434,325.362,384.274z"/>
<g>
	<circle style="fill:#FAE17C;" cx="312.13" cy="392.22" r="7.852"/>
	<path style="fill:#FAE17C;" d="M285.696,368.351c-1.151,0.101-2.217,0.451-3.162,0.983c-1.474,3.346-2.549,6.912-3.165,10.362
		c1.402,2.788,4.397,4.587,7.696,4.298c4.32-0.378,7.515-4.186,7.138-8.506C293.824,371.168,290.015,367.973,285.696,368.351z"/>
</g>
<path style="opacity:0.05;enable-background:new    ;" d="M231.293,281.289c-42.426,11.44-71.918,49.382-68.231,91.522
	c3.868,44.217,12.319,76.625,82.538,75.147C203.395,412.005,203.784,330.112,231.293,281.289z"/>
<path style="fill:#A3E3FF;" d="M426.028,315.276l-239.433,20.948c-47.293,4.138-88.986-30.847-93.123-78.14l-3.469-39.651
	c-7.692-87.916,57.343-165.422,145.26-173.114l92.323-8.077c87.916-7.692,165.422,57.343,173.113,145.26l3.469,39.651
	C508.305,269.445,473.321,311.138,426.028,315.276z"/>
<path style="fill:#5CB38E;" d="M323.712,146.148L323.712,146.148c-18.057-22.721-46.309-34.866-75.221-32.336l-35.539,3.109
	c-50.527,4.421-87.904,48.964-83.483,99.491l3.68,42.063c3.967,45.347,43.945,78.893,89.292,74.925l188.395-16.482
	c33.971-2.972,59.1-32.92,56.128-66.891L464.46,221.4c-2.972-33.971-32.92-59.1-66.891-56.128l-24.405,2.135
	C354.156,169.069,335.583,161.085,323.712,146.148z"/>
<circle style="fill:#495059;" cx="394.07" cy="265.47" r="17.338"/>
<g style="opacity:0.1;">
	<circle cx="184.59" cy="274.12" r="6.32"/>
	<circle cx="230.2" cy="279.81" r="6.32"/>
	<circle cx="206.46" cy="303.53" r="6.32"/>
</g>
<g>
	
		<ellipse transform="matrix(-0.0872 -0.9962 0.9962 -0.0872 16.4549 389.4231)" style="fill:#FFA8CB;" cx="186.64" cy="187.173" rx="8.173" ry="15.93"/>
	
		<ellipse transform="matrix(0.0872 0.9962 -0.9962 0.0872 444.7947 -129.6884)" style="fill:#FFA8CB;" cx="293.165" cy="177.871" rx="8.173" ry="15.93"/>
</g>
<path style="fill:#959BA0;" d="M203.298,399.996c-4.934,0-9.71-2.636-12.22-7.281c-3.646-6.742-1.134-15.162,5.607-18.807
	c14.962-8.088,26.665-8.922,35.21-9.53c1.092-0.078,2.157-0.153,3.2-0.245c7.635-0.665,14.365,4.982,15.034,12.616
	c0.668,7.635-4.98,14.366-12.615,15.034c-1.189,0.104-2.404,0.191-3.648,0.279c-7.344,0.523-14.282,1.017-23.981,6.261
	C207.787,399.458,205.526,399.996,203.298,399.996z"/>
<path style="opacity:0.1;enable-background:new    ;" d="M209.805,49.628c-74.652,18.887-126.73,89.618-119.802,168.805
	l3.469,39.651c4.138,47.293,45.83,82.277,93.123,78.14l80.789-7.068C155.617,248.739,180.234,110.934,209.805,49.628z"/>
<g>
	<path style="fill:#FF85B6;" d="M431.477,462.179l-11.07,3.142c-3.955,1.122-7.804-2.077-7.424-6.17l1.064-11.457
		c0.124-1.34-0.217-2.682-0.966-3.8l-6.409-9.557c-2.29-3.415-0.437-8.064,3.574-8.967l11.225-2.528
		c1.313-0.296,2.484-1.035,3.315-2.093l7.109-9.048c2.54-3.233,7.534-2.907,9.633,0.628l5.874,9.895
		c0.687,1.157,1.752,2.043,3.016,2.506l10.802,3.965c3.86,1.417,5.093,6.267,2.379,9.355l-7.595,8.644
		c-0.888,1.011-1.401,2.297-1.452,3.642l-0.433,11.499c-0.155,4.108-4.387,6.78-8.162,5.154l-10.568-4.553
		C434.154,461.902,432.772,461.812,431.477,462.179z"/>
	<path style="fill:#FF85B6;" d="M58.023,360.268l-9.994,5.704c-3.571,2.038-8.074-0.145-8.687-4.211l-1.714-11.378
		c-0.201-1.331-0.854-2.552-1.849-3.458l-8.513-7.742c-3.042-2.766-2.357-7.724,1.32-9.563l10.292-5.146
		c1.204-0.602,2.163-1.6,2.717-2.827l4.732-10.488c1.691-3.748,6.618-4.629,9.503-1.7l8.074,8.198
		c0.944,0.959,2.191,1.563,3.528,1.71l11.438,1.26c4.087,0.45,6.447,4.863,4.553,8.512l-5.302,10.213
		c-0.62,1.194-0.81,2.566-0.536,3.884l2.336,11.267c0.835,4.026-2.633,7.634-6.689,6.96l-11.351-1.887
		C60.555,359.357,59.192,359.601,58.023,360.268z"/>
</g>
<path d="M72.003,368.862c4.347,0.722,8.764-0.743,11.817-3.919c3.053-3.177,4.341-7.648,3.446-11.962l-2.218-10.693l5.031-9.692
	c2.03-3.91,2.002-8.564-0.076-12.448c-2.077-3.885-5.933-6.493-10.312-6.975l-10.855-1.195l-7.662-7.78
	c-3.091-3.138-7.521-4.55-11.862-3.774c-4.337,0.775-8.008,3.636-9.82,7.652L35,318.029l-9.768,4.884
	c-3.939,1.97-6.651,5.751-7.254,10.115c-0.604,4.364,0.982,8.739,4.242,11.704l8.079,7.347l1.627,10.8
	c0.656,4.357,3.414,8.104,7.379,10.026c1.844,0.893,3.835,1.338,5.823,1.338c2.288,0,4.571-0.588,6.618-1.757l9.484-5.413
	L72.003,368.862z M61.734,366.785l0.006-0.003h0.001C61.739,366.783,61.736,366.784,61.734,366.785z M54.305,353.754l-7.904,4.511
	l-1.354-8.998c-0.456-3.028-1.954-5.83-4.22-7.891l-6.733-6.124l8.138-4.069c2.742-1.37,4.945-3.663,6.201-6.452l3.744-8.296
	l6.386,6.484c2.148,2.183,5.009,3.568,8.051,3.903l9.047,0.996l-4.193,8.078c-1.411,2.718-1.846,5.865-1.224,8.863l1.849,8.912
	l-8.978-1.492C60.094,351.677,56.963,352.236,54.305,353.754z M463.805,421.652l-10.251-3.763l-5.574-9.391
	c-2.249-3.789-6.217-6.221-10.613-6.508c-4.38-0.276-8.646,1.611-11.366,5.075l-6.747,8.587l-10.653,2.399
	c-4.299,0.968-7.839,3.99-9.47,8.083c-1.631,4.093-1.14,8.72,1.313,12.379l6.082,9.069l-1.01,10.875
	c-0.407,4.386,1.372,8.686,4.76,11.502c3.387,2.815,7.939,3.777,12.18,2.577l10.506-2.982l10.029,4.321
	c1.694,0.729,3.491,1.09,5.283,1.09c2.487,0,4.963-0.695,7.128-2.063c3.726-2.353,6.048-6.385,6.214-10.787l0.41-10.913l7.209-8.204
	c2.908-3.309,3.996-7.834,2.91-12.104C471.059,426.626,467.94,423.17,463.805,421.652z M450.371,441.741
	c-2.021,2.299-3.197,5.251-3.314,8.311l-0.342,9.094l-8.358-3.601c-1.677-0.722-3.479-1.087-5.287-1.087
	c-1.225,0-2.451,0.167-3.641,0.505l-8.756,2.485l0.842-9.06c0.284-3.048-0.498-6.127-2.205-8.674l-5.068-7.559l8.879-2
	c2.988-0.673,5.676-2.37,7.564-4.776l5.623-7.157l4.647,7.829c1.563,2.632,4.007,4.662,6.88,5.716l8.544,3.136L450.371,441.741z
	 M408.819,203.006c3.477-0.304,6.05-3.37,5.745-6.847c-0.304-3.477-3.37-6.05-6.847-5.745s-6.05,3.37-5.745,6.847
	C402.277,200.738,405.342,203.311,408.819,203.006z M374.439,199.67c-0.304-3.477-3.37-6.05-6.847-5.745
	c-3.477,0.304-6.049,3.37-5.745,6.847c0.304,3.477,3.37,6.05,6.847,5.745C372.171,206.213,374.743,203.147,374.439,199.67z
	 M239.446,383.513c-0.792,0.45-1.662,0.718-2.582,0.799c-1.15,0.1-2.326,0.185-3.531,0.27c-7.814,0.557-15.893,1.133-27.014,7.144
	c-0.945,0.511-1.962,0.771-3.021,0.771c-2.352,0-4.506-1.282-5.622-3.348c-0.811-1.498-0.988-3.223-0.502-4.855
	c0.486-1.632,1.58-2.978,3.078-3.788c13.542-7.32,23.874-8.055,32.19-8.648c1.128-0.08,2.23-0.159,3.304-0.253
	c0.809-0.069,1.602,0.009,2.361,0.233c3.974,1.174,8.144-1.097,9.317-5.069c1.173-3.973-1.097-8.143-5.069-9.316
	c-2.567-0.758-5.232-1.027-7.914-0.79c-0.998,0.087-2.019,0.159-3.078,0.235c-8.705,0.62-21.859,1.556-38.244,10.413
	c-5.023,2.716-8.688,7.225-10.32,12.697c-1.631,5.472-1.034,11.252,1.682,16.274c3.738,6.918,10.948,11.215,18.817,11.215
	c3.526,0,7.038-0.89,10.154-2.575c8.277-4.475,13.868-4.874,20.947-5.378c1.283-0.091,2.537-0.182,3.769-0.289
	c3.083-0.27,6.004-1.177,8.681-2.696c3.603-2.044,4.866-6.622,2.821-10.225C247.626,382.732,243.047,381.469,239.446,383.513z
	 M511.64,221.499l-3.469-39.65c-8.041-91.895-89.358-160.12-181.239-152.078l-92.322,8.077c-28.079,2.457-53.941,11.764-76.1,26.113
	c-7.909-36.176-40.138-62.969-78.314-62.969C35.976,0.991,0,36.966,0,81.186c0,21.979,9.171,43.241,25.162,58.332
	c1.449,1.368,3.299,2.046,5.146,2.046c1.992,0,3.981-0.789,5.455-2.352c2.844-3.013,2.706-7.759-0.307-10.603
	C22.266,116.159,15,99.317,15,81.186c0-35.949,29.246-65.195,65.195-65.195c33.303,0,61.044,25.074,64.754,57.743
	c-23.321,18.648-41.443,43.327-52.157,71.424c-9.881,1.925-20.3,1.553-29.984-1.119c-3.993-1.104-8.123,1.243-9.224,5.235
	c-1.101,3.993,1.242,8.123,5.235,9.225c6.932,1.912,14.123,2.882,21.374,2.882c2.488,0,4.97-0.117,7.437-0.344
	c-4.973,18.409-6.857,37.977-5.101,58.05L86,258.737c3.629,41.477,33.974,74.299,72.568,83.017
	c-2.67,9.458-3.74,19.179-3.172,29.027c-19.461,16.158-50.159,24.854-83.036,23.358c-8.41-0.378-15.531,4.814-17.718,12.93
	c-2.167,8.044,1.347,16.042,8.743,19.9c35.353,18.448,76.019,22.617,111.639,22.617c8.009,0,15.748-0.215,23.129-0.522
	c3.083,1.16,6.364,2.16,9.845,3.004c-1.301,4.065-3.245,7.598-5.67,10.128c-5.332,5.564-8.178,12.872-8.014,20.576
	c0.165,7.705,3.32,14.884,8.885,20.216c5.396,5.171,12.484,8.019,19.956,8.019c7.942,0,15.341-3.157,20.833-8.89
	c12.068-12.594,19.935-29.422,22.538-47.907c6.793-0.641,13.163-1.458,19.119-2.459c1.975,6.703,3.058,13.253,2.681,16.905
	c-1.629,15.824,9.919,30.024,25.748,31.655c0.99,0.102,1.991,0.153,2.978,0.153c8.886,0,17.144-4.018,22.656-11.021
	c2.562-3.254,2-7.97-1.255-10.532s-7.969-2-10.532,1.254c-2.946,3.744-7.549,5.711-12.315,5.225
	c-7.597-0.783-13.142-7.6-12.358-15.196c0.63-6.115-0.858-14.298-2.884-21.498c10.079-2.548,18.701-5.789,25.971-9.775
	c1.554,5.219,2.777,10.616,3.598,15.958c0.57,3.707,3.765,6.361,7.404,6.361c0.379,0,0.763-0.029,1.149-0.088
	c4.094-0.629,6.902-4.459,6.272-8.553c-1.177-7.65-3.091-15.403-5.576-22.726c2.966-2.693,5.572-5.604,7.819-8.751
	c6.949-9.736,9.991-21,11.02-32.836c4.031-1.019,7.825-1.463,11.322-1.31c5.703,0.26,11.157-1.715,15.378-5.563
	c4.225-3.852,6.694-9.114,6.954-14.816c0.261-5.704-1.715-11.169-5.564-15.387c-3.85-4.218-9.111-6.684-14.815-6.944
	c-5.044-0.233-10.26,0.082-15.576,0.911c-1.119-5.302-2.718-10.474-4.798-15.488l60.564-5.299c2.171-0.19,4.306-0.491,6.409-0.874
	l8.783-0.769C478.02,318.256,516.131,272.836,511.64,221.499z M370.614,359.251c1.701,0.078,3.271,0.814,4.42,2.072
	c1.147,1.258,1.737,2.888,1.659,4.591c-0.077,1.698-0.814,3.266-2.075,4.416c-1.263,1.15-2.898,1.747-4.594,1.662
	c-3.724-0.163-7.617,0.142-11.635,0.879c-0.121-4.265-0.39-8.55-0.727-12.815C362.115,359.337,366.452,359.059,370.614,359.251z
	 M70.325,413.672c-0.418-0.218-1.69-0.881-1.199-2.7c0.238-0.885,0.855-1.92,2.553-1.848c32.49,1.475,63.357-6.253,85.483-20.993
	c2.339,17.338,6.843,34.073,18.542,46.451C141.764,434.632,103.181,430.817,70.325,413.672z M233.158,491.74
	c-2.636,2.752-6.189,4.268-10.002,4.268c-3.586,0-6.988-1.367-9.579-3.85c-2.671-2.56-4.186-6.006-4.265-9.705
	s1.287-7.207,3.847-9.878c4.391-4.583,7.781-10.908,9.736-17.986c5.644,0.603,11.68,0.921,18.182,0.921
	c3.248,0,6.623-0.085,10.093-0.234C248.606,469.4,242.37,482.128,233.158,491.74z M334.795,412.408
	c-1.326,1.857-3.572,5-8.134,8.535c-0.574,0.323-1.097,0.708-1.553,1.154c-9.367,6.657-27.138,14.319-62.111,17.379
	c-30.921,2.707-49.221-0.468-60.221-4.647c-0.418-0.212-0.858-0.385-1.315-0.517c-8.009-3.271-11.828-7.019-13.871-9.025
	c-8.381-8.23-14.157-19.989-17.057-53.129c-0.841-9.612,0.19-19.099,3.05-28.279c1.807,0.106,3.621,0.177,5.45,0.177
	c2.715-0.001,5.461-0.119,8.215-0.359l28.437-2.488c2.452-0.014,4.926-0.118,7.409-0.335l111.982-9.797
	c4.032,8.189,6.493,16.925,7.29,26.048C344.516,381.693,343.999,399.512,334.795,412.408z M415.916,308.632l-200.79,17.567
	c-38.358-0.041-71.101-29.459-74.505-68.377l-3.68-42.063c-1.964-22.441,4.93-44.304,19.409-61.561
	c14.48-17.257,34.814-27.842,57.255-29.805l35.54-3.109c2.324-0.204,4.642-0.304,6.947-0.304c23.968,0,46.662,10.854,61.749,29.835
	c13.476,16.955,34.411,25.952,55.976,24.063l24.405-2.135c14.438-1.265,28.496,3.171,39.596,12.484
	c11.1,9.313,17.907,22.392,19.17,36.826l2.505,28.628C461.928,278.531,442.76,303.376,415.916,308.632z M478.64,280.077
	c-4.765,5.679-10.223,10.563-16.196,14.608c8.841-12.804,13.451-28.636,11.992-45.311l-2.505-28.627
	c-1.612-18.425-10.303-35.12-24.472-47.009c-14.168-11.888-32.114-17.543-50.544-15.937l-24.405,2.135
	c-16.54,1.455-32.593-5.45-42.927-18.453l0,0c-19.68-24.761-50.247-37.898-81.745-35.141l-35.54,3.109
	c-26.433,2.313-50.383,14.78-67.438,35.106c-17.056,20.326-25.175,46.077-22.862,72.51l3.68,42.062
	c2.608,29.807,19.564,54.961,43.447,69.289c-14.793-1.867-28.76-7.912-40.453-17.724c-16.054-13.471-25.901-32.387-27.728-53.265
	l-3.469-39.65c-7.32-83.655,54.786-157.669,138.441-164.988l92.322-8.077c4.493-0.394,8.957-0.586,13.386-0.586
	c78.027,0,144.678,59.865,151.604,139.028l3.469,39.65C498.523,243.684,492.11,264.022,478.64,280.077z M410.033,246.446
	c-5.082-4.265-11.521-6.293-18.13-5.716c-13.643,1.194-23.771,13.264-22.579,26.908c1.13,12.912,11.999,22.675,24.726,22.674
	c0.722,0,1.451-0.031,2.183-0.095c6.609-0.579,12.598-3.696,16.862-8.778c4.265-5.083,6.295-11.521,5.717-18.13
	C418.232,256.699,415.115,250.71,410.033,246.446z M401.604,271.796c-1.689,2.013-4.061,3.247-6.679,3.477
	c-5.413,0.475-10.185-3.538-10.658-8.942s3.539-10.185,8.943-10.658c0.29-0.026,0.578-0.038,0.864-0.038
	c5.04,0,9.346,3.867,9.793,8.981C404.098,267.233,403.294,269.783,401.604,271.796z M278.41,154.914
	c-0.361-4.126-3.975-7.172-8.125-6.818c-4.126,0.361-7.179,3.998-6.818,8.125l0.691,7.908c0.342,3.904,3.616,6.847,7.463,6.847
	c0.219,0,0.439-0.01,0.662-0.029c4.126-0.361,7.179-3.999,6.818-8.125L278.41,154.914z M322.636,359.177
	c-7.023-9.067-15.571-13.652-24.025-12.91c-17.82,1.559-28.627,26.604-27.217,42.728c1.402,16.03,14.896,28.152,30.697,28.151
	c0.897,0,1.802-0.039,2.71-0.118c8.206-0.718,15.641-4.589,20.935-10.898c5.295-6.31,7.815-14.304,7.097-22.509
	C332.147,375.777,328.239,366.411,322.636,359.177z M314.245,396.488c-2.719,3.24-6.537,5.228-10.751,5.597
	c-8.717,0.764-16.396-5.698-17.157-14.396c-0.867-9.91,6.267-25.838,13.58-26.478c0.146-0.013,0.293-0.019,0.442-0.019
	c3.055,0,6.908,2.642,10.418,7.172c3.879,5.007,6.67,11.508,7.112,16.564c0,0,0,0,0,0.001
	C318.259,389.142,316.965,393.247,314.245,396.488z M212.134,160.712c-0.36-4.126-3.979-7.172-8.125-6.818
	c-4.126,0.361-7.179,3.999-6.818,8.125l0.691,7.908c0.342,3.904,3.616,6.847,7.463,6.847c0.219,0,0.439-0.01,0.662-0.029
	c4.126-0.361,7.179-3.998,6.818-8.125L212.134,160.712z"/>
<g>
</g>
<g>
</g>
<g>
</g>
<g>
</g>
<g>
</g>
<g>
</g>
<g>
</g>
<g>
</g>
<g>
</g>
<g>
</g>
<g>
</g>
<g>
</g>
<g>
</g>
<g>
</g>
<g>
</g>
</svg>
